<?xml version="1.0" encoding="utf-8"?>
<!-- Generator: Adobe Illustrator 22.0.1, SVG Export Plug-In . SVG Version: 6.00 Build 0)  -->
<svg version="1.1" id="Слой_1" xmlns="http://www.w3.org/2000/svg" xmlns:xlink="http://www.w3.org/1999/xlink" x="0px" y="0px"
	 viewBox="0 0 2048 1232" style="enable-background:new 0 0 2048 1232;" xml:space="preserve">
<style type="text/css">
	.st0{fill:url(#SVGID_1_);}
	.st1{fill:#010202;}
	.st2{fill:url(#SVGID_2_);}
	.st3{fill:url(#SVGID_3_);}
	.st4{fill:url(#SVGID_4_);}
	.st5{fill:url(#SVGID_5_);}
	.st6{fill:url(#SVGID_6_);}
	.st7{fill:url(#SVGID_7_);}
	.st8{fill:url(#SVGID_8_);}
	.st9{fill:url(#SVGID_9_);}
	.st10{fill:url(#SVGID_10_);}
	.st11{fill:url(#SVGID_11_);}
	.st12{fill:url(#SVGID_12_);}
	.st13{fill:url(#SVGID_13_);}
	.st14{fill:url(#SVGID_14_);}
	.st15{fill:url(#SVGID_15_);}
	.st16{fill:url(#SVGID_16_);}
	.st17{fill:url(#SVGID_17_);}
	.st18{fill:url(#SVGID_18_);}
	.st19{fill:url(#SVGID_19_);}
	.st20{fill:url(#SVGID_20_);}
	.st21{fill:url(#SVGID_21_);}
	.st22{fill:url(#SVGID_22_);}
	.st23{fill:url(#SVGID_23_);}
	.st24{fill:url(#SVGID_24_);}
	.st25{fill:url(#SVGID_25_);}
	.st26{fill:url(#SVGID_26_);}
	.st27{fill:url(#SVGID_27_);}
	.st28{fill:url(#SVGID_28_);}
	.st29{fill:url(#SVGID_29_);}
	.st30{fill:url(#SVGID_30_);}
	.st31{fill:url(#SVGID_31_);}
	.st32{fill:url(#SVGID_32_);}
	.st33{fill:url(#SVGID_33_);}
	.st34{fill:url(#SVGID_34_);}
	.st35{fill:url(#SVGID_35_);}
	.st36{fill:url(#SVGID_36_);}
	.st37{fill:url(#SVGID_37_);}
	.st38{fill:url(#SVGID_38_);}
	.st39{fill:url(#SVGID_39_);}
	.st40{fill:url(#SVGID_40_);}
	.st41{fill:url(#SVGID_41_);}
	.st42{fill:url(#SVGID_42_);}
	.st43{fill:url(#SVGID_43_);}
	.st44{fill:url(#SVGID_44_);}
	.st45{fill:url(#SVGID_45_);}
	.st46{fill:url(#SVGID_46_);}
	.st47{fill:url(#SVGID_47_);}
	.st48{fill:url(#SVGID_48_);}
	.st49{fill:url(#SVGID_49_);}
	.st50{fill:url(#SVGID_50_);}
</style>
<linearGradient id="SVGID_1_" gradientUnits="userSpaceOnUse" x1="1023.4" y1="-1587.4927" x2="1023.4" y2="-840.173" gradientTransform="matrix(1 0 0 -1 0 -427.0001)">
	<stop  offset="0" style="stop-color:#003F37"/>
	<stop  offset="1" style="stop-color:#101615"/>
</linearGradient>
<rect x="-1.2" class="st0" width="2049.2" height="1235.5"/>
<g>
	<ellipse class="st1" cx="1013.1" cy="826.8" rx="701.2" ry="701.2"/>
	<circle class="st1" cx="1033.7" cy="835.1" r="701.2"/>
</g>
<path class="st1" d="M1922.9,445.8c-1.5-1.4-2.4-3.4-2.4-5.5c0-4,3-7.2,6.8-7.7l9.6-55l-4.8,55.9c2.4,1.4,4,3.9,4,6.8
	s-1.7,5.5-4.1,6.8c0.7,42.3,5.7,84.7,12.3,127l14.1,8.9l-8.5,49l-7.5,0.9c-0.1,3.7-4.2,8.9-7.7,9.3l-7.2,43.7
	c18.3,1.7,35.6,7.4,52.7,13.9c1.7,0.7,1.4,2,1.2,2.8l-5.1,22.9l-3.6,16.5l-2.9,1.9h-4.9l-9.1,12.1l-7.4,37.5L1946,813l60.6-12.3
	l0.5,1.2l-11.2,3.2l-8,10.5c0.7,0.7,1,2.4,1.6,4.7c-1.3,2.2-2.5,4.5-3.8,6.7c1.3,5.2,1,10.9,0.6,16.6c-1.7,5.1-3.2,10.6-4,17.4
	c0.1,1.5,0.3,3,0.4,4.5c-0.9,0.7-1.6,1.8-2.1,3.1c-0.8-0.6-1.7-1.3-2.5-1.9c0.4-9,0.7-17.9,1.1-26.9c-1-1.5-2.1-3.2-2.9-5.8
	c0.6-3.1,1.9-5.4,3.3-7.4c-0.3-0.8-0.6-1.7-0.9-2.5c1.1-2.8,2.5-5.1,3.9-7.3c0-0.8,0-1.7,0-2.5c1.4-0.8,2.7-1.6,4-2.4l1.2-4.5
	l-42.5,12.2l-0.7,6.1l-0.9,0.3c-0.1,2.1-1.9,3.1-4.5,2.9c-9.2,1.2-17.1,7.7-22.4,13.9c-17.8,24.7-24.4,53.3-29.5,83.3l-14.1,100.8
	l1.7,6.1l-1.1,12.3l28.9,19.7l2.1,6.1l-2,1.7l1.9,4.7l-1.2,0.7l1,6.8l-1.5,4.7l0.7,2.5l-1.5,2.4l4.1,5.3l12.3,7.2l-2.1,1.1l3,6.8
	l-1.3,2.1c4.4,12,12.1,23.8,21,35.5c6.2,6,10.8,6.8,15.1,7l6.7,0.2l5.5,0.3l1.1,3.2l74.1,35.5c3.8-1.5,8.3-0.7,12.8-0.1
	c4.1,2.6,8.8,5,12.9,7.6c9.5,5.3,19,9.4,28.5,12c6.3,1.9,6.3,5.2,6.5,8.5c1.6,7.6-24.3,14.9-43.7,15.4c-37.4,1.3-74.3,0.8-110.4-0.5
	c-35.5-1.3-67.7,2-90.6,13.4c-11.1,7.3-8.4,12.9,1.4,16.1c6.8,2.3,14.5,2.4,19,5.9c15.6,12.2-7.1,20.4-40.2,23.1
	c-48.1,3.9-96.3,0-144.5-1.2c-31.1,0.3-51.1,7.2-66.2,16.9c-9.8,11.8,1.3,17.3,15.8,20.5c18.1,4.1,17.9,14.6,12,21.7
	c-1.9,2.4-3.8,3.8-6.9,5.2c-14,6.6-28.4,8.4-42.9,6.5c-3.7-0.4-3.8-2.6-0.6-3.7c11.4-4.1,15-9.6,8.2-11.8c-16.4-5.2-34.3-1-51.1-2.7
	l-54.4-5.4c-9.9-1-10.5-11.6-6.2-18.7c9-14.9,3.9-22.5-15.7-24.1c-41.3-3.4-82.8-5-123.8-11.2c-18-2.7-18.4-11.6-11.9-18.7
	c8.6-7.4,10.7-14.7-0.9-22.1c-32.7-2.9-65.4-3.7-98.1-2.8c-34,1.1-68.2,2.9-99.9-2.2c-14.1-5.7-15.9-12.9-12.1-20.8
	c7.4-4.1,15.5-8.1,20.6-12.9c1-3.8,2-7.5,3-11.3c-1.2-4.3-2.4-8.6-3.6-12.9c2.9-1.7,5.8-3.3,8.7-5c11.2-2.8,22.3-5.6,33.5-8.4
	c20.4-4.4,31.9-8.8,37.3-13.2c-0.4-1.5-0.9-3-1.3-4.5c7.1-1.3,14.1-2.5,21.2-3.8c2.9-2.9,5.8-5.9,8.7-8.8c8.5-2,17-3.9,25.5-5.9
	c-0.1-1.4-0.2-2.8-0.3-4.2c6.6-1.3,12.8-2.7,16.9-5.2c18.8-0.5,26.6-4.2,32.9-8.4c6.9-4.1,12.8-8.5,23.7-11.3
	c1.8-1.4,3.6-2.8,5.4-4.2c6.2,0.2,12.4,0.5,18.6,0.8c6.1-2,12.3-4,18.4-6c0.9-2.3,1.8-4.6,2.7-6.9c5.6-1.1,11.1-2.3,16.7-3.4
	c6-6.4,12-12.8,18-19.2c1.7-7,5.6-8.8,10.3-8.2c10-0.9,18.3-4,25.3-8.6c4.2-7.3,10.4-9,17.6-8.1c10.9-0.8,15.4-6.1,13.6-15.9
	c3.4-2.4,7.5-3.6,11.6-4.5c3.5-4.4,6.9-8.9,10.3-13.3c-3.9-35.8-6.1-72.7-11.7-107.4c-4.8-14.8-9.8-22.5-15.2-19.9
	c-0.9-9.2-2.5-18.5-2.9-27.8c-0.5-11.4-3.4-21-9.1-25.2c-2.2,2.9-4.8,3-8.2-3.4c-3.2-17.1-6.5-34.1-9.7-51.2c0-3.6-1.8-6.4-7.1-5.6
	c-0.4-16-1.8-30.8-4.4-44.3c0.7-0.3,1.5-0.5,2.2-0.8l8.7,32.7c2.5,6.2,6.2,2.2,6.1-2.6c11.3-57.9,9.9-117.3,2-177.2
	c-2.2-0.1-4-2-4-4.4c0-1.9,1.1-3.6,2.8-4.2c-1.4-10.1-3.1-20.1-4.8-30.2c0.6-1,1.1-1.9,1.6-2.8c1.5,11.3,3.2,22.2,4.8,32.7
	c2.3,0.1,4.1,2.1,4.1,4.5c0,1.9-1.1,3.6-2.7,4.2c14.3,88.4,31,145.1,50,170.1c-0.2-5.1-0.4-10.3-0.6-15.5
	c-0.7-7.7-11.4-12.1-9.3-20.5c-1.9-0.3-4.9-2.5-5.8-4.9l-5.4-45.3l10.3-9.9l2.3-0.2c15.4-112.3,8.2-257.9,3.2-399.1
	c-0.3,0.5-0.6,1-1,1.4c-0.3,0.3-0.6,0.5-0.9,0.8s-0.6,0.5-1,0.7h-0.1c-1,0.5-2.1,0.7-3.1,0.5c-0.7-0.1-1.2-0.4-1.7-0.8
	s-0.8-1-0.9-1.7c-0.1-0.8,0.1-1.7,0.6-2.7c0.3-0.5,0.8-0.6,1.2-0.4c0.5,0.3,0.6,0.8,0.4,1.2c-0.4,0.7-0.5,1.2-0.4,1.6
	c0,0.2,0.1,0.4,0.3,0.6c0.2,0.2,0.5,0.3,0.8,0.4c0.6,0.1,1.3,0,2-0.4h0.1c0.3-0.1,0.6-0.3,0.8-0.5c0.2-0.2,0.4-0.4,0.6-0.6
	c0.9-1,1.2-2.4,1.2-3.5l0,0l0,0c0-1.6-0.8-3.1-2.1-4.2l0,0l0,0c-1.3-1.1-3.1-1.8-5.1-1.8l0,0l0,0l0,0l0,0c-0.7,0-1.4,0.1-2.1,0.3
	c-0.4,0.1-0.7,0.2-1.1,0.4c-1.8,0.8-3.2,2.1-3.7,3.8c-0.2,0.5-0.6,0.7-1.1,0.6c-0.5-0.2-0.7-0.6-0.6-1.1c0.5-1.6,1.6-2.9,3-3.9
	c-0.8,0.3-1.5,0.5-2.2,0.8c-3.7-1.3-8-1-12.5,0.1l-0.4-0.9l28.3-4.7l-0.2-6.5l-0.9-14.6c-2.5-0.5-4.4-2.6-4.4-5.2
	c0-2.4,1.5-4.3,3.7-5l-2.5-40.1l1.2-1.4l3.6,41.4c2.5,0.4,4.4,2.6,4.4,5.2c0,2.4-1.5,4.3-3.6,5l1.3,14.4l0.7,6.3l29.2-4.9l0.2,1.1
	c-5.2,0.4-10,1.2-13.2,4.3c-1.9-0.1-3.7-0.1-5.5-0.1c2.5,0.4,4.8,1.8,6,3.9c0.3,0.4,0.1,1-0.3,1.2c-0.4,0.3-1,0.1-1.2-0.3
	c-0.9-1.7-2.8-2.8-5-3c-0.4,0-0.9,0-1.3,0c-0.4,0.1-0.9,0.1-1.3,0.2l0,0l0,0l0,0c-1.9,0.4-3.6,1.4-4.6,2.8c-1,1.3-1.4,2.9-1.1,4.5
	l0,0l0,0c0.2,1.1,0.7,2.4,1.9,3.2l0,0c0.2,0.1,0.4,0.3,0.7,0.4l0,0c0.3,0.1,0.6,0.2,0.9,0.3l0,0l0,0c0.8,0.2,1.5,0.1,2.1-0.1
	c0.3-0.1,0.5-0.3,0.7-0.5c0.1-0.2,0.2-0.4,0.2-0.7c0-0.4-0.2-0.9-0.7-1.5c-0.3-0.3-0.3-0.9,0.1-1.2c0.3-0.3,0.9-0.3,1.2,0.1
	c0.7,0.9,1.1,1.7,1.1,2.5c0,0.7-0.2,1.3-0.6,1.8s-0.9,0.9-1.5,1.1c-0.9,0.3-2,0.4-3.1,0.1l0,0l0,0c-0.4-0.2-0.8-0.3-1.2-0.5l0,0l0,0
	c-0.4-0.2-0.7-0.4-1-0.6l0,0l0,0c-0.5-0.3-0.9-0.7-1.2-1.1c31.1,261.9,52.6,358.2,70,394.5l1.6-0.1c6.8,1,11.3,2.6,12.3,5.1
	l4.5,41.9c0.2,2.5-0.7,5-1.9,7.5l-4.9,4.4c2.4,11.1-8.3,13-9,22.2c2.9,35,5.9,71.1,8.7,106.1l4.4,9.9l-5.5-90.3l2.6,0.2l5.3,24.6
	l5.6,4.2l10.1-4.7l-0.5-1.9l18.5-9l-0.5-4.4l17.7-7.8l0.1-4.2l16.9-12.7l-1.7-3.1l14.5-15.8l-1.7-5.4l10.7-12.6l-0.6-3.9l13.3-24.6
	l1,0.1l0.2-17.3c-0.9,0.1-1.7,0.3-2.6,0.6c-0.8,0.3-1.2,0.6-1.3,0.9c-0.2,0.3-0.1,0.7,0,1.2s-0.2,0.9-0.7,1s-0.9-0.2-1-0.7
	c-0.1-0.8-0.2-1.5,0.1-2.2c0.3-0.7,1-1.3,2.3-1.8c1.1-0.4,2.2-0.7,3.3-0.8l0.2-14.8c-0.8-0.4-1.4-1.2-1.4-2.1c0-1,0.6-1.8,1.4-2.1
	l0.1-11.7h1.7l-0.1,11.6c0.9,0.3,1.5,1.1,1.5,2.1c0,0.9-0.7,1.8-1.6,2.1l-0.2,14.6c1.4,0,2.8,0.2,4.2,0.3c0.5,0.1,1.1,0.1,1.8,0.2
	l0,0l16.1,1.6l-0.5-0.5l5.4-65.6l-4.9-0.5c1.2-11,7.1-18.9,16.7-23.6l5.5-4.9h0.1c37-147,64-294.1,80.1-441.2l0.2-2
	c-1.4-0.8-2.3-2.2-2.3-3.9c0-2.1,1.3-3.8,3.2-4.4l-0.1-3.2c-2,0-3.6-0.5-3.2-4.3c0.6-0.9,1.9-1.4,3-1.4c-1.5-4.3-5-6.9-8.3-7.1
	c-2.6,0.5-0.3,2,1.1,2.6c0.4,1-0.2,1.3-2,1.9c-3.6-1-5-5-1.5-6.8l-21.2-4.9l33.7,3.9l3.2-30.3l3.7-23.4l-0.3,23.6l-3.8,30.5
	l50.3,7.4c-13.4-0.4-23.2,1.1-26.5,6l-23.1-4.1l-0.9,9.9c1.3,0.8,2.2,2.3,2.2,3.9c0,2.1-1.3,3.8-3.2,4.4c0,0.6-0.1,1.3-0.2,2.1
	c-10.7,150.4-14.7,300.9-10.7,451.4h-0.2l0.1,0.1l9.6,6.7l2.6-12.7l9.7-2C1890.3,524,1908.4,484.9,1922.9,445.8L1922.9,445.8
	L1922.9,445.8z M1530.3,241.1c-2.6,0.5-5.2,1-7.7,1.8c2.4,0,4.6,0.8,6.2,2.2l0,0c0.7,0.6,1.3,1.2,1.7,2L1530.3,241.1L1530.3,241.1z
	 M1534.4,244.9c0.2-0.6,0.5-1.1,1-1.5c1.2-1.7,3.2-3,5.6-3.5l0,0l0,0c-2.4,0.2-4.8,0.4-7.1,0.7L1534.4,244.9L1534.4,244.9z
	 M1752.7,657.4l-1.4-0.3l-0.8,17.3l3,0.3l1.3-15.2L1752.7,657.4L1752.7,657.4z M1748.7,674.4l0.8-17.3l-4.5-0.5l-0.8,17.4
	L1748.7,674.4L1748.7,674.4z M1742.5,673.9l0.8-17.4l-5.4-0.6l-0.8,17.5L1742.5,673.9L1742.5,673.9z M1735.3,673.3l0.6-17.4
	l-1.5-0.2l0,0c-0.5-0.1-1.1-0.1-1.8-0.2c-1.3-0.2-2.7-0.3-4-0.3l-0.2,17.5L1735.3,673.3L1735.3,673.3z M1849.6,91
	c2.2,1.2,4,2.8,5.3,4.7l0.5-3.5C1853.5,91.8,1851.6,91.4,1849.6,91z"/>
<linearGradient id="SVGID_2_" gradientUnits="userSpaceOnUse" x1="778.7902" y1="-1122.8613" x2="800.5004" y2="-1151.6716" gradientTransform="matrix(-1 0 0 -1 2731.1589 -427.0001)">
	<stop  offset="0" style="stop-color:#4B4E4D"/>
	<stop  offset="0.27" style="stop-color:#444745"/>
	<stop  offset="0.42" style="stop-color:#404240"/>
	<stop  offset="1" style="stop-color:#201600"/>
</linearGradient>
<path class="st2" d="M1927.5,685.9c18.3,1.7,35.6,7.4,52.7,13.9c0.8,0.3,1.2,0.7,1.3,1.2c-1.2,0.6-2.5,1.2-4.1,1.7
	c-11-2.6-22.1-5.2-33.1-7.8c-0.4,1.6-1.5,2.9-5.4,2.8c-2.9,0.3-4.4,1-2.7,2.4c0.6,0.7,1.8,1.3,2.4,2c-0.4,0.5-1.6,1-2,1.5
	c-9.4,2-7.3,4.7-3.6,7.5c-8.7-0.3-11.3,2.7-11.1,7c-0.9,0.6-1.7,1.2-2.6,1.8c2.5-11,5-22,7.5-33l0.9-2.1L1927.5,685.9z"/>
<linearGradient id="SVGID_3_" gradientUnits="userSpaceOnUse" x1="1910.5" y1="761.6484" x2="1930.7128" y2="761.6484">
	<stop  offset="0" style="stop-color:#55FFCD"/>
	<stop  offset="1" style="stop-color:#00262A"/>
</linearGradient>
<path class="st3" d="M1930.3,745.2l-0.3,1.2h-4.2l2.1-10.2C1930.2,737.2,1931.4,741.1,1930.3,745.2L1930.3,745.2z M1925.6,747.6h4.2
	l-2.8,13.9l-4.2,0.2L1925.6,747.6L1925.6,747.6z M1922.5,762.9l4.3-0.2l-3.1,15.1l-4.3,0.5L1922.5,762.9L1922.5,762.9z
	 M1919.1,779.6l4.3-0.5l-1.4,6.8l-4.3,0.6L1919.1,779.6L1919.1,779.6z M1926.7,735.9c-2.2-0.1-5.2,2.1-6.6,8l-0.6,2.5h5.1
	L1926.7,735.9L1926.7,735.9z M1919.2,747.6L1916,762l5.4-0.3l2.9-14.1L1919.2,747.6L1919.2,747.6z M1915.8,763.3l-3.5,15.9l5.8-0.7
	l3.1-15.5L1915.8,763.3L1915.8,763.3z M1910.5,787.4l5.9-0.8l1.4-6.9l-5.8,0.7L1910.5,787.4z"/>
<linearGradient id="SVGID_4_" gradientUnits="userSpaceOnUse" x1="1877.8" y1="663.4941" x2="1903.3213" y2="663.4941">
	<stop  offset="0" style="stop-color:#55FFCD"/>
	<stop  offset="1" style="stop-color:#00262A"/>
</linearGradient>
<path class="st4" d="M1902.8,639.6l-6.9-2l2.3-13.2C1901.8,626.8,1904.5,633,1902.8,639.6L1902.8,639.6z M1895.7,638.8l-2.7,14.9
	l6.9,2.6l2.7-15.5L1895.7,638.8L1895.7,638.8z M1892.9,655l6.8,2.6l-3.2,18.8l-6.9-2.5L1892.9,655L1892.9,655z M1889.4,675.2
	l-2.6,15.4l7.1,1.8l2.5-14.7L1889.4,675.2L1889.4,675.2z M1886.4,691.8l7.2,1.7l-1.7,10l-6.7-4.6L1886.4,691.8L1886.4,691.8z
	 M1897.1,623.8c-3.4-1.2-7.1,0.9-8.8,9.2l-0.3,2.2l6.8,2L1897.1,623.8L1897.1,623.8z M1887.7,636.5l6.8,2l-2.6,14.8l-6.7-2.5
	L1887.7,636.5L1887.7,636.5z M1885,652.1l-3.3,19.1l6.7,2.4l3.3-19L1885,652.1L1885,652.1z M1881.5,672.4l6.6,2.4l-2.7,15.6
	l-6.7-1.7L1881.5,672.4L1881.5,672.4z M1877.8,694l6.2,4.3l1.2-6.7l-6.7-1.7L1877.8,694z"/>
<linearGradient id="SVGID_5_" gradientUnits="userSpaceOnUse" x1="1794.8" y1="720.8" x2="1811.8322" y2="720.8">
	<stop  offset="0" style="stop-color:#55FFCD"/>
	<stop  offset="1" style="stop-color:#00262A"/>
</linearGradient>
<path class="st5" d="M1811.8,705.4l-6.5-0.8l-0.1-10.7C1808.8,694.3,1812.2,698.1,1811.8,705.4L1811.8,705.4z M1805.3,705.9l6.4,0.8
	l-0.5,16.7l-5.8-0.6L1805.3,705.9L1805.3,705.9z M1805.4,724l5.7,0.6l-0.4,14.5l-5.2,1.3L1805.4,724L1805.4,724z M1805.6,741.7v5.5
	l4.9,0.5l0.2-7.3L1805.6,741.7L1805.6,741.7z M1803.9,693.9v10.6l-6.9-0.8C1797,697.5,1800.4,694.2,1803.9,693.9L1803.9,693.9z
	 M1797,704.9l7,0.8l0.1,16.9l-8-0.8L1797,704.9L1797,704.9z M1796.1,723l8.2,0.8l0.1,16.9l-9.3,2.3L1796.1,723L1796.1,723z
	 M1794.8,746.1l9.5,1V742l-9.3,2.3L1794.8,746.1z"/>
<linearGradient id="SVGID_6_" gradientUnits="userSpaceOnUse" x1="1765.9" y1="618.45" x2="1782.395" y2="618.45">
	<stop  offset="0" style="stop-color:#55FFCD"/>
	<stop  offset="1" style="stop-color:#00262A"/>
</linearGradient>
<path class="st6" d="M1782.3,594l-2.8-0.3l0.8-9C1781.8,585.9,1782.7,589.1,1782.3,594L1782.3,594z M1779.4,595l2.8,0.2
	c-0.4,4.9-0.8,9.6-1.2,14.3l-2.9-0.1L1779.4,595L1779.4,595z M1778,610.6l2.9,0.1c-0.6,6.9-1.2,13.7-1.8,20.5l-3-0.4L1778,610.6
	L1778,610.6z M1776,632.1l3,0.3c-0.6,6.7-1.2,13.5-1.7,20.4l-3.2-0.2L1776,632.1L1776,632.1z M1779.2,584.1l-0.8,9.5l-6.3-0.6
	c0.7-5.9,3.9-8.6,6.5-8.9C1778.8,584.1,1779,584.1,1779.2,584.1L1779.2,584.1z M1771.9,594.2l-1.5,14.8l6.5,0.3l1.3-14.5
	L1771.9,594.2L1771.9,594.2z M1770.2,610.3l-2.1,19.5l6.7,0.9l1.9-20.1L1770.2,610.3L1770.2,610.3z M1765.9,652.2l7,0.4l1.9-20.6
	l-6.7-0.9L1765.9,652.2z"/>
<linearGradient id="SVGID_7_" gradientUnits="userSpaceOnUse" x1="1772.2191" y1="1021.65" x2="1772.2191" y2="909.9203">
	<stop  offset="0" style="stop-color:#55FFCD"/>
	<stop  offset="1" style="stop-color:#00262A"/>
</linearGradient>
<path class="st7" d="M1803.2,950.1c-2.3,23-3.9,45.6-5,68.1c-19.6-2.8-38.8-4-57.4-3c4.9-25,3.1-50,6.4-74.7
	c0.7-4.9,1.6-9.5,2.7-13.7c1.3-0.1,2.5-0.1,3.7-0.2c0,4.3-0.1,8.7-0.3,13.2c1.3-3.6,2.3-8.4,3-13.3c3.4-0.1,6.8-0.2,10.2-0.1
	c0.1,1.3,0.2,2.6,0.3,3.9c0.3,3.9,0.4,8.7,0.3,12.7c1.1-2.7,2.2-7.3,2.1-10.3c0.2-2.2,0.3-4.3,0.4-6.3c3.3,0.1,6.5,0.3,9.8,0.6
	l0.1,1.2c0.2,4-0.2,8.7-0.8,12.8c2-2.6,3.3-7.4,3.2-10.4c0-1.1,0.1-2.3,0.1-3.4c3.2,0.3,6.4,0.7,9.6,1.1c0.2,4.3,0.3,8.7,0.6,13.1
	c1.2-4.1,1.9-8.4,2.6-12.6c3,0.5,5.7,1.6,8.3,2.7C1803.8,937.2,1803.8,943.4,1803.2,950.1L1803.2,950.1z M1802.2,926.5
	c-0.8-3.8-2-7.2-3.5-10.2c-0.6-0.1-1.1-0.3-1.6-0.4c-0.8,3-1.3,6.5-1.9,10.2l1.7,0.2C1798.7,926.4,1800.4,926.5,1802.2,926.5
	L1802.2,926.5z M1791.4,925.7c-3.1-0.3-6.2-0.6-9.3-0.9c0.1-3.8,0.3-7.6,0.8-11.3c2.6,0.3,5.2,0.7,7.7,1.1
	C1791,918.1,1791.2,921.9,1791.4,925.7L1791.4,925.7z M1790.3,911.8c-2.3-0.3-4.7-0.6-7-0.9c0.3-2.4,0.9-4.9,1.6-7.5
	c1.6,0.7,3.1,1.5,4.5,2.4C1789.8,907.7,1790.1,909.7,1790.3,911.8L1790.3,911.8z M1779.2,924.5c-3.2-0.3-6.3-0.6-9.5-0.7
	c0.3-3.7,0.6-7.4,1.2-11.1c2.6,0.1,5.2,0.2,7.7,0.4C1778.7,916.8,1778.9,920.6,1779.2,924.5L1779.2,924.5z M1778.5,910.4
	c-2.4-0.2-4.8-0.4-7.2-0.6c0.3-1.6,0.6-3.2,1-4.9c0.6-1.4,1.3-2.6,1.9-3.8c0.9,0,1.8,0.1,2.8,0.2c0.5,0.1,1.1,0.2,1.6,0.3
	C1778.5,904.5,1778.5,907.5,1778.5,910.4L1778.5,910.4z M1766.3,923.5c-3.3-0.1-6.5-0.2-9.6-0.2c0.4-3.7,0.8-7.3,1.1-10.6
	c2.7-0.1,5.4-0.2,8.1-0.2C1766,916.2,1766.1,919.8,1766.3,923.5L1766.3,923.5z M1765.9,909.6c-2.6-0.1-5.2-0.2-7.8-0.1v-0.3
	c2.3-2.9,5-5.1,8-6.4C1766,905.1,1765.9,907.3,1765.9,909.6L1765.9,909.6z M1750.8,923.6c0.8-2.4,1.6-4.5,2.5-6.5
	c0.1,2,0.2,4.1,0.2,6.3C1752.6,923.4,1751.7,923.5,1750.8,923.6z"/>
<linearGradient id="SVGID_8_" gradientUnits="userSpaceOnUse" x1="1190.0588" y1="-1530" x2="1572.8589" y2="-1530" gradientTransform="matrix(-1 0 0 -1 2731.1589 -427.0001)">
	<stop  offset="0" style="stop-color:#7B8790"/>
	<stop  offset="1" style="stop-color:#565F64"/>
</linearGradient>
<path class="st8" d="M1158.3,1188.1c2.9-1.7,5.8-3.3,8.7-5c11.2-2.8,22.3-5.6,33.5-8.4c20.4-4.4,31.9-8.8,37.3-13.2
	c-0.4-1.5-0.9-3-1.3-4.5c7.1-1.3,14.1-2.5,21.2-3.8c2.9-2.9,5.8-5.9,8.7-8.8c8.5-2,17-3.9,25.5-5.9l-0.1-0.8l6.9-0.9
	c3.5-1.6,6.9-3.2,10.4-4.8c3.9-0.1,7.7-0.3,11.6-0.5c7.5-2,14.6-4.2,19.4-7.9c4.1-1.1,6.8-3.1,9.2-5.1c2.8-1.5,5.5-2.9,8.3-4.4
	c2.7-1,5.5-2,8.2-3c1.5-0.9,3.1-1.8,4.6-2.7c4.4,0.2,8.8,0.4,13.2,0.6c1.5,1,3,2.1,4.5,3.1c7.9,0.9,15.9,1.8,23.8,2.7
	c-3.6-2.6-7.1-5.2-10.6-7.8l-10.9-1.6l17.2-5.6c0.9-2.3,1.8-4.6,2.7-6.9c5.6-1.1,11.1-2.3,16.7-3.4c6-6.4,12-12.8,18-19.2
	c0.6-2.6,1.6-4.5,2.8-5.8l-0.9,8.4c2.2-1.4,3.7-3.3,4.4-5.7c1.4-1.4,3.5-2.1,6.3-2.1c-0.2,1.1-0.5,2.1-0.7,3.2
	c6.2-1.5,13.7-3.9,21.5-6.1c-0.2-0.9,2-2.9,0.1-2.8c-3.8,0.2-10.2,1.4-15.1,1.5c6.6-1.5,12.2-4,17.3-7.3c4.2-7.3,10.4-9,17.6-8.1
	c10.9-0.8,15.4-6.1,13.6-15.9c3.4-2.4,7.5-3.6,11.6-4.5c3.5-4.4,6.9-8.9,10.3-13.3l-0.1-0.6l7.4,17.6c-1.2,2.7-2.4,5.4-3.6,8.1
	c-5,1.1-10.1,2.2-15.1,3.3c-0.8,2-1.5,4-2.3,6c-5,0.2-9.9,0.3-14.9,0.5c-0.2,1.4-0.4,2.9-0.6,4.4c-1.5,1.4-2.9,2.9-4.3,4.3
	c2.1,2.4,4.1,4.8,6.2,7.2c1.9,0.1,3.9,0.1,5.8,0.2c0.7,2,1.3,4,2,6c-4.9-0.2-9.8-0.4-14.7-0.6c-3.3,2.6-6.5,5.2-9.8,7.9
	c-2.6-0.3-5.2-0.6-7.8-0.9c-1.7,0.8-3.3,1.5-5,2.2c-0.2,1.7-0.5,3.4-0.7,5.1c1.4,0.5,2.9,0.9,4.3,1.4c-0.3,3.5-1.3,7-6.9,10.5
	c-4.1,1.9-8.9,2.6-13.9,2.8c-1.9,2.3-3.7,4.6-5.6,6.9c-5.5-1-9.8-0.8-13.6,0c-2.3,2-4.6,4.1-6.9,6.1c-3.4,1-6.8,2-10.2,3
	c2.5,0.7,5,1.3,7.5,1.9c5.4,2.5,10.7,4.9,16,7.3c1.1,1.1-0.3,2.3-4.4,3.4c-8.6-0.7-17.3-1.4-26-2.1c-1.5,1.2-3.1,2.4-4.6,3.6
	c-8.6-0.8-17.3-1.8-24.1,0c-6.4,3.3-12.7,6.5-19.1,9.8c-4.1-0.2-8.3-0.3-12.4-0.5c-1.3,0.4-2.7,0.7-4,1c-2.2,1.3-4.5,2.7-6.7,4
	c-4.3-0.3-8.7-0.5-13.1-0.7c-1.3,1.1-2.5,2.3-3.8,3.4c-0.8,2-1.7,3.9-2.5,5.8c-7.5-0.3-13.8,0.6-18.7,2.8c-2.1,2.7-5.5,5.4-10.3,8.1
	c-3.5-0.5-7.1-1-10.6-1.5c-0.8,1.3-1.7,2.7-2.5,4c6.8,3.7,13.6,7.5,20.4,11.2c2.1,0.2,4.1,0.3,6.2,0.5c4.6,2.5,5.6,5,7.4,7.5
	c-16.6,0.1-33.2-0.4-49.8,1.6c-3.3,1.6-6.5,3.2-9.8,4.9c-7.6-1.8-15.1-3.6-22.7-5.4c0,0.9-0.1,1.9-0.1,2.8c-11.7-1-22,0.1-31.9,1.7
	c-3.6-0.8-7.2-1.5-10.8-2.3c0.4,1.3,0.9,2.5,1.4,3.8c3,0.5,6,0.9,9,1.4c-6.4-0.4-12.7-0.8-19-1.2c-2.8,1.6-5.5,3.2-8.3,4.8
	c-2.8-0.2-5.7-0.5-8.6-0.7l4.8-6c-1.1-0.8-2.1-1.5-3.1-2.3l-10.5,3.8L1158.3,1188.1z"/>
<linearGradient id="SVGID_9_" gradientUnits="userSpaceOnUse" x1="1580.0587" y1="761.4987" x2="1595.8999" y2="761.4987">
	<stop  offset="0" style="stop-color:#55FFCD"/>
	<stop  offset="1" style="stop-color:#00262A"/>
</linearGradient>
<path class="st9" d="M1591.2,738.7l0.1,2.3l-6.2,0.7l0.1-10.9C1588.2,730.7,1591.3,733.5,1591.2,738.7L1591.2,738.7z M1584,731v10.8
	l-3.6,0.4l-0.2-2.3C1579.5,734.7,1581.5,731.8,1584,731L1584,731z M1580.5,743.4l3.6-0.4v1.2l0,0l0,0l1.3,9.5h-2.2h-0.1h-0.1
	l-1.8,0.3L1580.5,743.4L1580.5,743.4z M1586.4,753.8l6.1,0.1c-0.3-3.8-0.7-7.7-1-11.7l-6.4,0.7v1.3L1586.4,753.8L1586.4,753.8z
	 M1581.2,755.2l1.8-0.2h2.3l2.3,17.2l-5.3-1L1581.2,755.2L1581.2,755.2z M1582.4,772.5l5.4,1l0.9,17.5l-5.1-0.9L1582.4,772.5
	L1582.4,772.5z M1589.9,791.2l-0.9-17.8l5.2-0.7c0.6,6.4,1.2,12.8,1.7,19.5L1589.9,791.2L1589.9,791.2z M1592.6,755.1l-6-0.1
	l2.3,17.2l5.2-0.7C1593.6,766,1593.1,760.6,1592.6,755.1z"/>
<linearGradient id="SVGID_10_" gradientUnits="userSpaceOnUse" x1="1681.2" y1="847.2" x2="1713.1125" y2="847.2">
	<stop  offset="0" style="stop-color:#55FFCD"/>
	<stop  offset="1" style="stop-color:#00262A"/>
</linearGradient>
<path class="st10" d="M1713.1,812.9l-4.3-0.3c0.2-3.1,0.2-6.2-0.7-8.7l3.7-4C1712.7,803.3,1713.2,807.6,1713.1,812.9L1713.1,812.9z
	 M1707.1,805c0.6,2.2,0.6,4.9,0.5,7.6l-7.2-0.5l0,0L1707.1,805L1707.1,805z M1711.4,798.6c-2-5.8-5.6-8.6-9.9-8.9l-0.4,8.5
	c3.4,0.5,5.4,2.2,6.5,4.5L1711.4,798.6L1711.4,798.6z M1700.2,789.7l-0.4,8.5c-3-0.1-5.2,1.5-6.8,3.9l-3.4-4.4
	C1692,792.4,1695.6,789.8,1700.2,789.7L1700.2,789.7z M1693.8,803.1l5.4,6.9l0.5-10.7c-2.6,0-4.5,1.5-5.8,3.6L1693.8,803.1
	L1693.8,803.1z M1700.5,810.2l6.1-6.5c-0.9-2.1-2.6-3.7-5.6-4.2L1700.5,810.2L1700.5,810.2z M1689.1,798.9
	c-1.3,3.3-2.1,7.3-2.4,12.3l3.3,0.2c0.4-2.8,1.1-5.9,2.4-8.3L1689.1,798.9L1689.1,798.9z M1691.2,811.5c0.3-2.4,1-5.1,2.1-7.3
	l5.9,7.7v0.1L1691.2,811.5L1691.2,811.5z M1686.6,812.5l12.5,0.8l-0.9,17.5l-12.7,0.6L1686.6,812.5L1686.6,812.5z M1685.4,832.6
	l12.8-0.5l-0.9,17.4l-12.8-1.3L1685.4,832.6L1685.4,832.6z M1684.4,849.4l-1.2,19.8l13,0.9l1-19.4L1684.4,849.4L1684.4,849.4z
	 M1683.2,870.4l13,0.9l-1.2,23.8l-13.3,0.5L1683.2,870.4L1683.2,870.4z M1681.6,896.8l13.3-0.6l-0.4,7.7l-13.3-0.7L1681.6,896.8
	L1681.6,896.8z M1695.8,904l0.4-7.7l13.1-0.5c-0.2,2.9-0.3,5.9-0.5,8.9L1695.8,904L1695.8,904z M1709.3,894.5l-13.1,0.6l1.2-23.6
	l13.1,0.9C1710.1,879.7,1709.7,887,1709.3,894.5L1709.3,894.5z M1710.5,871.1l-13.1-0.9l1-19.4l13.1,1.3
	C1711.2,858.4,1710.8,864.8,1710.5,871.1L1710.5,871.1z M1711.6,850.9c0.3-6.1,0.5-12.2,0.8-18.3l-13-0.6l-0.9,17.6L1711.6,850.9
	L1711.6,850.9z M1699.3,830.7l0.9-17.4l12.8,0.8c-0.2,5.8-0.4,11.6-0.6,17.2L1699.3,830.7z"/>
<linearGradient id="SVGID_11_" gradientUnits="userSpaceOnUse" x1="1501.4532" y1="795.85" x2="1519.7" y2="795.85">
	<stop  offset="0" style="stop-color:#55FFCD"/>
	<stop  offset="1" style="stop-color:#00262A"/>
</linearGradient>
<path class="st11" d="M1514.4,785.1l-6.1,0.4l-2.1-11.6C1509.4,774.6,1513.3,779.3,1514.4,785.1L1514.4,785.1z M1504.9,773.8
	c-2.6,0.3-4.3,3.6-3,11.4l0.1,0.8l5.1-0.4L1504.9,773.8L1504.9,773.8z M1502.1,787.2l5.1-0.4l2.8,15.1l-5.7-0.6L1502.1,787.2
	L1502.1,787.2z M1511.3,802.1l5.9,0.4l-2.6-16.1l-6.1,0.4L1511.3,802.1L1511.3,802.1z M1504.5,802.6l5.7,0.7l2.5,13.5l-6.1-1.1
	L1504.5,802.6L1504.5,802.6z M1519.7,817.9l-2.3-14.3l-5.8-0.3l2.5,13.6L1519.7,817.9z"/>
<linearGradient id="SVGID_12_" gradientUnits="userSpaceOnUse" x1="793.1588" y1="-49.4883" x2="1130.4053" y2="-49.4883" gradientTransform="matrix(-1 0 0 1 2731.1589 1186.3385)">
	<stop  offset="0" style="stop-color:#7B8790"/>
	<stop  offset="1" style="stop-color:#565F64"/>
</linearGradient>
<path class="st12" d="M1804.3,1027.5c-0.8,2.8-1.7,5.5-2.5,8.3c0.7,4.3,2.4,8.6,5.9,12.9c-1.7,6.1-0.5,9.4,1.1,12.2
	c-5.4,2.6-7.5,5.6-7.9,9.9c-8,10.8-16,21.5-24,32.3c-11.3,12.4-5.4,17-0.5,22.1c-2.8,1.1-5.5,2.1-8.2,3.2c-3.8,0.7-7.7,1.4-11.6,2.1
	c4.3,1,8.7,1.9,13,2.9c3,1.4,6,2.9,8.9,4.3c4.5,2.7,5.7,5.5,6.3,8.3c9.5,2,19.1,3.9,28.6,5.9c15.1,7.7,30.3,15.3,45.4,23
	c11.7,6.1,23.5,12.3,35.2,18.4c-7.3,5.1-14.5,10.1-21.8,15.2c22,4.8,43.9,9.5,65.8,14.2c-94.1,3-178.3,18.3-254.3,43.8
	c-5.9-5.3-11.7-10.7-17.6-16c8.4-11.4,9.1-22.7-27.6-34.1c16.1-2.5,33.9-5,24.3-7.5c-7.7-4.8-14.1-9.4-17.9-13.7
	c9.9-2.9,16.4-5.6,15.8-7.9c-7.1-1.2-14.1-2.4-21.2-3.6c12.4-1.6,24.9-3.2,37.3-4.8c-15,0.4-29.8,1.4-45.9-1.6
	c-8.3-5.1-14.4-9.8-12.2-12.1c8.7-2.2,15.2-4.4,5.7-6.6c-2.5-0.2-5-0.3-7.5-0.5c-6.6-1.6-8.5-3.3-5.7-4.9c5.1-1.5,9.2-2.9,5.6-3.8
	c-3.2-1.1-6.3-2.1-9.5-3.2c-6-1.7-7.9-3.4-5.6-5.1c2.8-1,5.6-2.1,8.4-3.1c-1.9-0.5-3.7-0.9-5.6-1.4c1-1.8,2-3.6,3-5.4
	c0.4-1.8,0.9-3.6,1.4-5.4c1.9-5.6,4.2-10.4,10-9.9c8.8-0.5,12.3-1.5,16.1-2.5c-3.7-1-7.5-1.9-11.2-2.9c-3.3-3.1-2.9-6.7,4.4-10.9
	c17.1-11.5,34.6-22.6,53.9-31.9c9.1-5.9,17.8-12.1,30.3-15.7c10.5-8.4,15.5-16.8,18.9-25.2c0.6-3.1,1.3-6.1,1.9-9.2
	c1.5,2.9,2.9,3.4,4.3,3.5c1.3-4,2.7-8,4-12h0.3c-0.3,2.1-0.7,4.1-1.1,6.2c18.6-1,37.8,0.3,57.4,3c0.2-3.7,0.4-7.4,0.7-11.1l0,0
	C1799.4,1016.3,1800.3,1024.6,1804.3,1027.5z"/>
<linearGradient id="SVGID_13_" gradientUnits="userSpaceOnUse" x1="814.8812" y1="-1533.55" x2="834.1812" y2="-1533.55" gradientTransform="matrix(-1 0 0 -1 2731.1589 -427.0001)">
	<stop  offset="0" style="stop-color:#7B8790"/>
	<stop  offset="1" style="stop-color:#565F64"/>
</linearGradient>
<path class="st13" d="M1911.5,1105.2c2,1,3.7,4.1,4.8,6.1c-3.6-0.6-8.7-0.4-11.1,0.5c-2.7-2.5-5.5-5-8.2-7.5c0.2-0.3,0.4-0.7,0.6-1
	c1.6,1.2,3.2,2.4,4.8,3.6c0.3-0.7,0.6-1.4,0.9-2.1c1.2-1.2,1.1-2.3,0.8-3.5c1.4,0.1,2.9,0.3,4.3,0.4c0.3,2.2-0.3,4.5-1.7,6.9
	C1908.3,1107.5,1909.9,1106.3,1911.5,1105.2z"/>
<linearGradient id="SVGID_14_" gradientUnits="userSpaceOnUse" x1="831.7589" y1="-1483.8501" x2="860.7589" y2="-1483.8501" gradientTransform="matrix(-1 0 0 -1 2731.1589 -427.0001)">
	<stop  offset="0" style="stop-color:#7B8790"/>
	<stop  offset="1" style="stop-color:#565F64"/>
</linearGradient>
<polygon class="st14" points="1873.4,1044.9 1884.1,1052.2 1888.3,1055.8 1889,1058.2 1893.9,1065.1 1899.4,1067.9 1886,1068.9 
	1879.1,1063.4 1871,1060.5 1873.4,1059.1 1870.4,1053.9 1871.4,1050.6 1872.5,1045.3 1873.4,1044.8 "/>
<linearGradient id="SVGID_15_" gradientUnits="userSpaceOnUse" x1="748.9399" y1="-1599.1595" x2="707.3234" y2="-1631.674" gradientTransform="matrix(-1 0 0 -1 2731.1589 -427.0001)">
	<stop  offset="0" style="stop-color:#7B8790"/>
	<stop  offset="0.47" style="stop-color:#5F6A70"/>
	<stop  offset="1" style="stop-color:#201600"/>
</linearGradient>
<path class="st15" d="M2032.4,1202.9c-17.8-8-35.6-16.1-54.2-22.4c7.4,1.1,13.7,1.3,18.6,0.3c9.1,4.2,18.2,8.4,27.3,12.6
	C2023.4,1196.3,2027.4,1199.6,2032.4,1202.9z"/>
<linearGradient id="SVGID_16_" gradientUnits="userSpaceOnUse" x1="727.6151" y1="-1636.6088" x2="734.2181" y2="-1656.931" gradientTransform="matrix(-1 0 0 -1 2731.1589 -427.0001)">
	<stop  offset="0" style="stop-color:#201600"/>
	<stop  offset="1" style="stop-color:#565F64"/>
</linearGradient>
<path class="st16" d="M2018.4,1215.7c-8.1-2.8-16.6-4.3-25.1-5.3c-13.6,0-27.6-1.3-40.3,2.5c5,2.5,6.6,4.9,7.7,7.4
	c8.9,1.6,17.9,3.4,27.2,6.3c20.2,3,42.8,2,59.5,0.3C2038.7,1224.3,2025.5,1220.4,2018.4,1215.7z"/>
<linearGradient id="SVGID_17_" gradientUnits="userSpaceOnUse" x1="804.1588" y1="-688.1941" x2="854.2589" y2="-688.1941" gradientTransform="matrix(-1 0 0 1 2731.1589 1186.3385)">
	<stop  offset="0" style="stop-color:#7B8790"/>
	<stop  offset="1" style="stop-color:#565F64"/>
</linearGradient>
<path class="st17" d="M1908.9,539.2c-5.9,7-11.4,7.9-16.9,8c-6,4-11.2,3.3-15.1,0.4c18.1-33.8,33.3-67.5,45.8-101.3
	c1.3,0.8,2.7,1.4,4.3,1.6C1925.5,479,1920.4,509.9,1908.9,539.2z"/>
<linearGradient id="SVGID_18_" gradientUnits="userSpaceOnUse" x1="807.7057" y1="-862.5453" x2="800.9817" y2="-871.8002" gradientTransform="matrix(-1 0 0 -1 2731.1589 -427.0001)">
	<stop  offset="0" style="stop-color:#A5724D"/>
	<stop  offset="0.1" style="stop-color:#845F37"/>
	<stop  offset="0.3" style="stop-color:#5E4A2E"/>
	<stop  offset="0.58" style="stop-color:#3F3325"/>
	<stop  offset="0.9" style="stop-color:#201600"/>
	<stop  offset="1" style="stop-color:#201600"/>
</linearGradient>
<path class="st18" d="M1925.2,443.2c-1-0.6-1.9-0.8-2.7-0.6c-0.5-2.3,0.5-4.5,1.7-6.7c1.5-1.2,3-1.3,4.5-1.5
	C1926,437,1925.2,440,1925.2,443.2z"/>
<linearGradient id="SVGID_19_" gradientUnits="userSpaceOnUse" x1="882.3588" y1="-829.8515" x2="955.1589" y2="-829.8515" gradientTransform="matrix(-1 0 0 1 2731.1589 1186.3385)">
	<stop  offset="0" style="stop-color:#7B8790"/>
	<stop  offset="1" style="stop-color:#565F64"/>
</linearGradient>
<path class="st19" d="M1848.8,157c-9.3,118.8-16.2,237.8-34.4,357.9c-4.2,27.1-16.8,39.5-28.9,41c-4.7,0.6-7.5-2.5-9.5-7.5
	C1808.4,417.9,1832.9,287.4,1848.8,157z"/>
<linearGradient id="SVGID_20_" gradientUnits="userSpaceOnUse" x1="1229.6531" y1="-504.0089" x2="1250.3811" y2="-504.0089" gradientTransform="matrix(-1 0 0 1 2731.1589 1186.3385)">
	<stop  offset="0" style="stop-color:#7B8790"/>
	<stop  offset="1" style="stop-color:#565F64"/>
</linearGradient>
<path class="st20" d="M1482.4,756.6c9.9-50.9,10-102.9,4.5-155.4c9,52.6,19,94.1,12.6,149.7c-1.1,8.9-11.7,16.2-18.7,10.6
	C1481.8,760.5,1482.4,758.6,1482.4,756.6z"/>
<linearGradient id="SVGID_21_" gradientUnits="userSpaceOnUse" x1="1172.6583" y1="-723.0385" x2="1203.0588" y2="-723.0385" gradientTransform="matrix(-1 0 0 1 2731.1589 1186.3385)">
	<stop  offset="0" style="stop-color:#7B8790"/>
	<stop  offset="1" style="stop-color:#565F64"/>
</linearGradient>
<path class="st21" d="M1531.6,277.9c14.5,113.9,27,203.2,26.9,321.5c-1,25.2-16.9,43.2-30.4,49.3
	C1541.9,543.5,1536.4,409.7,1531.6,277.9z"/>
<linearGradient id="SVGID_22_" gradientUnits="userSpaceOnUse" x1="829.7949" y1="-1007.1124" x2="874.1965" y2="-1152.3434" gradientTransform="matrix(-1 0 0 -1 2731.1589 -427.0001)">
	<stop  offset="0" style="stop-color:#4B4E4D"/>
	<stop  offset="0.27" style="stop-color:#444745"/>
	<stop  offset="0.42" style="stop-color:#404240"/>
	<stop  offset="1" style="stop-color:#201600"/>
</linearGradient>
<path class="st22" d="M1958.4,582.7l-0.1,0.3c-19.7-5.6-41.2-8.6-69.2-10c-12.8,0.2-9.2,3.9-3.2,8.1c-9.9,1.9-17.5,3.9-7.9,5.8
	c3.2,2.5,1.7,5.5-4.8,8.8c-14.5,7.2-13.7,14.1-5.4,15.4c-7,2.4-4.7,4.9-1.1,10.6c-1.4,8.9-2.9,18.8-4.3,28.5
	c3.1,7.3-1.7,11.5-2.6,16.8c5.2,3.4,5.5,6,0.9,7.7c-2.9,4-5.8,7.9-8.7,11.9c-1.9,8.8-3.8,17.5-5.7,26.2c-1.9,4.6-5.1,7.3-8.3,11
	c-1.8,3.7-3.3,7.5-3.5,11.2c1.7-19.7,3.3-39.5,4.9-59.3c4.3-4.4,8.2-8.6,12.5-11.3c2.3-20.3,4.5-40.6,6.8-60.9
	c2.9-0.9,4.5-2.6,4.9-5.1c-1.1-7.8-3.6-14.9-11.2-19.4c-2.1-2.6-4.1-5.1-6.2-7.6l0.5-0.3l9.3,6.6l2.6-12.7l9.7-2l0.2-0.4
	c25.5,1.5,51.3,6,76.8,12.2L1958.4,582.7z"/>
<linearGradient id="SVGID_23_" gradientUnits="userSpaceOnUse" x1="1168.2186" y1="-1090.0474" x2="1200.5369" y2="-1139.8127" gradientTransform="matrix(-1 0 0 -1 2731.1589 -427.0001)">
	<stop  offset="0" style="stop-color:#4B4E4D"/>
	<stop  offset="0.27" style="stop-color:#444745"/>
	<stop  offset="0.42" style="stop-color:#404240"/>
	<stop  offset="1" style="stop-color:#201600"/>
</linearGradient>
<path class="st23" d="M1605.8,650.6l1.7,17.7l-4.2-0.7l-1.7-13.4L1605.8,650.6L1605.8,650.6z M1597.9,649.2c0.4,1.3,1.1,1.4,1.3,2.5
	c-7.5-1.2-15-1.2-22.5,0.2c0.3,5.1,0.7,10.2,1.1,15.3c-1.4,0-2-0.2-3.4-0.1c0-6.1-0.8-12-0.9-18.1
	C1582,648.1,1589.4,648.2,1597.9,649.2L1597.9,649.2z M1565.5,649.2c0.1,0.8,0.2,2,0.2,2.8c-6.7-0.4-13.5,0.8-20.2,2.9
	c0-1.2-0.1-2.3-0.2-3.5C1552.7,649.7,1559.7,648.6,1565.5,649.2L1565.5,649.2z M1573.7,690.5c-13.9,1-28.2,3.7-43.7,12.2
	c-4.8-6-3.2-10.9,2.7-15c-5.1-20.2-3.4-26.9,1.5-27.4c-0.7-2-0.8-4.1,0.4-6.1c-3.7,1.1-7,1.7-8.8-1.1h-0.5L1515,663l5.4,45.3
	c0.1,0.3,0.3,0.6,0.5,0.9C1536.6,700.7,1553.6,693.6,1573.7,690.5z"/>
<linearGradient id="SVGID_24_" gradientUnits="userSpaceOnUse" x1="970.6089" y1="-1090.5134" x2="970.6089" y2="-1234.0801" gradientTransform="matrix(-1 0 0 -1 2731.1589 -427.0001)">
	<stop  offset="0" style="stop-color:#4B4E4D"/>
	<stop  offset="0.19" style="stop-color:#373D3E"/>
	<stop  offset="0.81" style="stop-color:#211800"/>
	<stop  offset="1" style="stop-color:#201600"/>
</linearGradient>
<path class="st24" d="M1759.8,701.7c-1.2,1.4-3.5,5.2-3.2,7.1c0.6,3.2,4.4,7.4,10.2,9.9c-3.8,2.1-7.6,1.6-9.7,5
	c-3.3,5.3-3.2,15.1,2,21.9c-1.8,1.6-3.8,1.2-5,2.7c-3.8,5-4,11.7-2.4,16.9c-3.4,6.2-1.2,15.5-0.8,25.5c-5.9,13.8-6.8,27.7-8.6,41.5
	c4.1-54.1,8.1-108.1,12.2-162.2c1.5,3.6,3.3,7.1,6.8,9.8c0.1,2,0.6,3.9,0.2,6.1c-0.5,2.5-3.4,6.2-1.3,8c2.3,1.9,13.9,2.4,18.6,3.6
	C1773.1,698.5,1761.9,699.4,1759.8,701.7z"/>
<linearGradient id="SVGID_25_" gradientUnits="userSpaceOnUse" x1="939.1747" y1="-999.9034" x2="949.8593" y2="-1075.9272" gradientTransform="matrix(-1 0 0 -1 2731.1589 -427.0001)">
	<stop  offset="0" style="stop-color:#212521"/>
	<stop  offset="4.000000e-02" style="stop-color:#444745"/>
	<stop  offset="0.16" style="stop-color:#404240"/>
	<stop  offset="0.39" style="stop-color:#201700"/>
	<stop  offset="1" style="stop-color:#201600"/>
</linearGradient>
<path class="st25" d="M1796.8,658.1c-5-0.6-7.6-0.9-12.6-1.4c4.2-35.5,15.8-81.3-8.6-91.1c4.4,0.6,8.7,1.2,13.1,1.8
	C1812.8,587,1801.6,624.7,1796.8,658.1z"/>
<linearGradient id="SVGID_26_" gradientUnits="userSpaceOnUse" x1="1207.5836" y1="-1175.2032" x2="1124.8264" y2="-1380.0345" gradientTransform="matrix(-1 0 0 -1 2731.1589 -427.0001)">
	<stop  offset="0" style="stop-color:#212521"/>
	<stop  offset="9.000000e-02" style="stop-color:#444745"/>
	<stop  offset="0.16" style="stop-color:#404240"/>
	<stop  offset="0.42" style="stop-color:#201700"/>
	<stop  offset="1" style="stop-color:#201600"/>
</linearGradient>
<path class="st26" d="M1546,767c0.9,2.4,2.9,5.4,12.1,6.3c-3.2,0.9-6.2,4.1-6.5,6.1c-0.2,1.2,4.3,1.9,4.1,3.1
	c1.5-0.2-2.9,1.9-2.2,2.9c0.9,1.3,0.1,4.9,2.6,6.3c3.3,1.7,10.2,1.4,14.4,2.2c-18.4,2.6-23.9,8.7-16.3,18.2
	c-6.5,6.6-3,13.6-3.6,20.4c-1.6,17.3-0.1,34.5-0.5,51.8c-4.5-47.9-8.9-95.8-13.4-143.7c2.3,6,1,10.3,5.5,13.9
	c3.1,2.4,7.8,4.8,12.5,5.3C1551.9,762.3,1545,764.6,1546,767z"/>
<path class="st1" d="M125.7,445.9L125.7,445.9c14.4,39.1,32.6,78.2,54.6,117.3l9.7,2l2.6,12.7l9.6-6.7l0.1-0.1h-0.2
	c4-150.5,0-301-10.7-451.4c-0.1-0.8-0.2-1.5-0.2-2.1c-1.9-0.6-3.2-2.3-3.2-4.4c0-1.6,0.9-3.1,2.2-3.9l-0.9-9.9l-23.1,4.1
	c-3.3-4.9-13.1-6.4-26.5-6l50.3-7.4l-3.8-30.5L185.9,36l3.7,23.4l3.2,30.3l33.7-3.9l-21.2,4.9c3.5,1.8,2.1,5.8-1.5,6.8
	c-1.8-0.6-2.4-0.9-2-1.9c1.4-0.6,3.7-2.1,1.1-2.6c-3.3,0.2-6.8,2.8-8.3,7.1c1.1,0,2.4,0.5,3,1.4c0.4,3.8-1.2,4.3-3.2,4.3l-0.1,3.2
	c1.9,0.6,3.2,2.3,3.2,4.4c0,1.7-0.9,3.1-2.3,3.9l0.2,2c16.1,147.1,43.1,294.2,80.1,441.2h0.1l5.5,4.9c9.6,4.7,15.5,12.6,16.7,23.6
	l-4.9,0.5l5.4,65.8l-0.5,0.5l16.1-1.6l0,0c0.7-0.1,1.3-0.1,1.8-0.2c1.4-0.1,2.8-0.3,4.2-0.3l-0.2-14.6c-0.9-0.3-1.6-1.2-1.6-2.1
	c0-1,0.6-1.8,1.5-2.1l-0.1-11.6h1.7l0.1,11.7c0.8,0.3,1.4,1.1,1.4,2.1c0,0.9-0.6,1.7-1.4,2.1l0.2,14.8c1.1,0.1,2.2,0.4,3.3,0.8
	c1.3,0.5,2,1.1,2.3,1.8s0.2,1.4,0.1,2.2c-0.1,0.5-0.5,0.8-1,0.7s-0.8-0.5-0.7-1c0.1-0.5,0.2-0.9,0-1.2c-0.1-0.3-0.5-0.6-1.3-0.9
	c-0.9-0.3-1.7-0.5-2.6-0.6l0.2,17.3l1-0.1l13.3,24.6l-0.6,3.9l10.7,12.6l-1.7,5.4l14.5,15.8l-1.7,3.1l16.9,12.7l0.1,4.2l17.7,7.8
	l-0.5,4.4l18.5,9l-0.5,1.9l10.1,4.7l5.6-4.2l5.3-24.6l2.6-0.2l-5.5,90.3l4.4-9.9c2.8-35,5.8-71.1,8.7-106.1
	c-0.7-9.2-11.4-11.1-9-22.2l-4.9-4.4c-1.2-2.5-2.1-5-1.9-7.5l4.5-41.9c1-2.5,5.5-4.1,12.3-5.1l1.6,0.1
	c17.4-36.3,38.9-132.6,70-394.5c-0.3,0.4-0.7,0.8-1.2,1.1l0,0l0,0c-0.3,0.2-0.6,0.4-1,0.6l0,0l0,0c-0.4,0.2-0.8,0.3-1.2,0.5l0,0l0,0
	c-1.1,0.3-2.2,0.2-3.1-0.1c-0.6-0.2-1.1-0.6-1.5-1.1s-0.6-1.1-0.6-1.8c0-0.8,0.4-1.6,1.1-2.5c0.3-0.4,0.9-0.4,1.2-0.1
	c0.4,0.3,0.4,0.9,0.1,1.2c-0.5,0.6-0.7,1.1-0.7,1.5c0,0.3,0.1,0.5,0.2,0.7c0.2,0.2,0.4,0.4,0.7,0.5c0.6,0.2,1.3,0.3,2.1,0.1l0,0l0,0
	c0.3-0.1,0.6-0.2,0.9-0.3l0,0c0.3-0.1,0.5-0.3,0.7-0.4l0,0c1.2-0.8,1.7-2.1,1.9-3.2l0,0l0,0c0.3-1.6-0.1-3.2-1.1-4.5
	c-1-1.4-2.7-2.4-4.6-2.8l0,0l0,0l0,0c-0.4-0.1-0.9-0.1-1.3-0.2c-0.4,0-0.9,0-1.3,0c-2.2,0.2-4.1,1.3-5,3c-0.2,0.4-0.8,0.6-1.2,0.3
	c-0.4-0.2-0.6-0.8-0.3-1.2c1.2-2.1,3.5-3.5,6-3.9c-1.8,0-3.6,0-5.5,0.1c-3.2-3.1-8-3.9-13.2-4.3l0.2-1.1l29.2,4.9l0.7-6.3l1.3-14.4
	c-2.1-0.7-3.6-2.6-3.6-5c0-2.6,1.9-4.8,4.4-5.2l3.6-41.4l1.2,1.4l-2.5,40.1c2.2,0.7,3.7,2.6,3.7,5c0,2.6-1.9,4.7-4.4,5.2l-0.9,14.6
	l-0.2,6.5l28.3,4.7L546,246c-4.5-1.1-8.8-1.4-12.5-0.1c-0.7-0.3-1.4-0.5-2.2-0.8c1.4,1,2.5,2.3,3,3.9c0.1,0.5-0.1,0.9-0.6,1.1
	c-0.5,0.1-0.9-0.1-1.1-0.6c-0.5-1.7-1.9-3-3.7-3.8c-0.4-0.2-0.7-0.3-1.1-0.4c-0.7-0.2-1.4-0.3-2.1-0.3l0,0l0,0l0,0l0,0
	c-2,0-3.8,0.7-5.1,1.8l0,0l0,0c-1.3,1.1-2.1,2.6-2.1,4.2l0,0l0,0c0,1.1,0.3,2.5,1.2,3.5c0.2,0.2,0.4,0.4,0.6,0.6
	c0.2,0.2,0.5,0.4,0.8,0.5h0.1c0.7,0.4,1.4,0.5,2,0.4c0.3-0.1,0.6-0.2,0.8-0.4s0.3-0.4,0.3-0.6c0.1-0.4,0-0.9-0.4-1.6
	c-0.2-0.4-0.1-0.9,0.4-1.2c0.4-0.2,0.9-0.1,1.2,0.4c0.5,1,0.7,1.9,0.6,2.7c-0.1,0.7-0.4,1.3-0.9,1.7c-0.5,0.4-1,0.7-1.7,0.8
	c-1,0.2-2.1,0-3.1-0.5h-0.1c-0.4-0.2-0.7-0.4-1-0.7c-0.3-0.3-0.6-0.5-0.9-0.8c-0.4-0.4-0.7-0.9-1-1.4c-5,141.2-12.2,286.8,3.2,399.1
	l2.3,0.2l10.3,9.9l-5.4,45.3c-0.9,2.4-3.9,4.6-5.8,4.9c2.1,8.4-8.6,12.8-9.3,20.5c-0.2,5.2-0.4,10.4-0.6,15.5
	c19-25,35.7-81.7,50-170.1c-1.6-0.6-2.7-2.3-2.7-4.2c0-2.4,1.8-4.4,4.1-4.5c1.6-10.5,3.3-21.4,4.8-32.7c0.5,0.9,1,1.8,1.6,2.8
	c-1.7,10.1-3.4,20.1-4.8,30.2c1.7,0.6,2.8,2.3,2.8,4.2c0,2.4-1.8,4.3-4,4.4c-7.9,59.9-9.3,119.3,2,177.2c-0.1,4.8,3.6,8.8,6.1,2.6
	l8.7-32.7c0.7,0.3,1.5,0.5,2.2,0.8c-2.6,13.5-4,28.3-4.4,44.3c-5.3-0.8-7.1,2-7.1,5.6c-3.2,17.1-6.5,34.1-9.7,51.2
	c-3.4,6.4-6,6.3-8.2,3.4c-5.7,4.2-8.6,13.8-9.1,25.2c-0.4,9.3-2,18.6-2.9,27.8c-5.4-2.6-10.4,5.1-15.2,19.9
	c-5.6,34.7-7.8,71.6-11.7,107.4c3.4,4.4,6.8,8.9,10.3,13.3c4.1,0.9,8.2,2.1,11.6,4.5c-1.8,9.8,2.7,15.1,13.6,15.9
	c7.2-0.9,13.4,0.8,17.6,8.1c7,4.6,15.3,7.7,25.3,8.6c4.7-0.6,8.6,1.2,10.3,8.2c6,6.4,12,12.8,18,19.2c5.6,1.1,11.1,2.3,16.7,3.4
	c0.9,2.3,1.8,4.6,2.7,6.9c6.1,2,12.3,4,18.4,6c6.2-0.3,12.4-0.6,18.6-0.8c1.8,1.4,3.6,2.8,5.4,4.2c10.9,2.8,16.8,7.2,23.7,11.3
	c6.3,4.2,14.1,7.9,32.9,8.4c4.1,2.5,10.3,3.9,16.9,5.2c-0.1,1.4-0.2,2.8-0.3,4.2c8.5,2,17,3.9,25.5,5.9c2.9,2.9,5.8,5.9,8.7,8.8
	c7.1,1.3,14.1,2.5,21.2,3.8c-0.4,1.5-0.9,3-1.3,4.5c5.4,4.4,16.9,8.8,37.3,13.2c11.2,2.8,22.3,5.6,33.5,8.4c2.9,1.7,5.8,3.3,8.7,5
	c-1.2,4.3-2.4,8.6-3.6,12.9c1,3.8,2,7.5,3,11.3c5.1,4.8,13.2,8.8,20.6,12.9c3.8,7.9,2,15.1-12.1,20.8c-31.7,5.1-65.9,3.3-99.9,2.2
	c-32.7-0.9-65.4-0.1-98.1,2.8c-11.6,7.4-9.5,14.7-0.9,22.1c6.5,7.1,6.1,16-11.9,18.7c-41,6.2-82.5,7.8-123.8,11.2
	c-19.6,1.6-24.7,9.2-15.7,24.1c4.3,7.1,3.7,17.7-6.2,18.7l-54.4,5.4c-16.8,1.7-34.7-2.5-51.1,2.7c-6.8,2.2-3.2,7.7,8.2,11.8
	c3.2,1.1,3.1,3.3-0.6,3.7c-14.5,1.9-28.9,0.1-42.9-6.5c-3.1-1.4-5-2.8-6.9-5.2c-5.9-7.1-6.1-17.6,12-21.7
	c14.5-3.2,25.6-8.7,15.8-20.5c-15.1-9.7-35.1-16.6-66.2-16.9c-48.2,1.2-96.4,5.1-144.5,1.2c-33.1-2.7-55.8-10.9-40.2-23.1
	c4.5-3.5,12.2-3.6,19-5.9c9.8-3.2,12.5-8.8,1.4-16.1c-22.9-11.4-55.1-14.7-90.6-13.4c-36.1,1.3-73,1.8-110.4,0.5
	c-19.4-0.5-45.3-7.8-43.7-15.4c0.2-3.3,0.2-6.6,6.5-8.5c9.5-2.6,19-6.7,28.5-12c4.1-2.6,8.8-5,12.9-7.6c4.5-0.6,9-1.4,12.8,0.1
	l74.1-35.5l1.1-3.2l5.5-0.3l6.7-0.2c4.3-0.2,8.9-1,15.1-7c8.9-11.7,16.6-23.5,21-35.5l-1.3-2.1l3-6.8l-2.1-1.1l12.3-7.2l4.1-5.3
	l-1.5-2.4l0.7-2.5l-1.5-4.7l1-6.8l-1.2-0.7l1.9-4.7l-2-1.7l2.1-6.1l28.9-19.7l-1.1-12.3l1.7-6.1l-14.1-100.8
	c-5.1-30-11.7-58.6-29.5-83.3c-5.3-6.2-13.2-12.7-22.4-13.9c-2.6,0.2-4.4-0.8-4.5-2.9L104,826l-0.7-6.1l-42.5-12.2l1.2,4.5
	c1.3,0.8,2.6,1.6,4,2.4c0,0.8,0,1.7,0,2.5c1.4,2.2,2.8,4.5,3.9,7.3c-0.3,0.8-0.6,1.7-0.9,2.5c1.4,2,2.7,4.3,3.3,7.4
	c-0.8,2.6-1.9,4.3-2.9,5.8c0.4,9,0.7,17.9,1.1,26.9c-0.8,0.6-1.7,1.3-2.5,1.9c-0.5-1.3-1.2-2.4-2.1-3.1c0.1-1.5,0.3-3,0.4-4.5
	c-0.8-6.8-2.3-12.3-4-17.4c-0.4-5.7-0.7-11.4,0.6-16.6c-1.3-2.2-2.5-4.5-3.8-6.7c0.6-2.3,0.9-4,1.6-4.7l-8-10.5l-11.2-3.2L42,801
	l60.6,12.3l-2.4-19.5l-7.6-37.2L83.7,744h-4.9l-2.9-1.9l-3.6-16.5l-5.1-22.9c-0.2-0.8-0.5-2.1,1.2-2.8c17.1-6.5,34.4-12.2,52.7-13.9
	l-7.2-43.7c-3.5-0.4-7.6-5.6-7.7-9.3l-7.5-0.9l-8.5-48.9l14.1-8.9c6.6-42.3,11.6-84.7,12.3-127c-2.4-1.3-4.1-3.9-4.1-6.8
	s1.6-5.4,4-6.8l-4.8-55.9l9.6,55c3.8,0.5,6.8,3.7,6.8,7.7C128,442.6,127.1,444.5,125.7,445.9L125.7,445.9z M518.2,241.2l-0.2,6
	c0.4-0.8,1-1.4,1.7-2l0,0c1.6-1.4,3.8-2.2,6.2-2.2C523.4,242.3,520.8,241.7,518.2,241.2L518.2,241.2z M514.2,245l0.5-4.3
	c-2.3-0.3-4.7-0.5-7.1-0.7l0,0l0,0c2.4,0.5,4.4,1.8,5.6,3.5C513.6,244,513.9,244.5,514.2,245L514.2,245z M295.8,657.6l-2.1,2.1
	l1.3,15.2l3-0.3l-0.8-17.3L295.8,657.6L295.8,657.6z M299.8,674.5l4.5-0.4l-0.8-17.4l-4.5,0.5L299.8,674.5L299.8,674.5z M306.1,674
	l5.4-0.5l-0.8-17.5l-5.4,0.6L306.1,674L306.1,674z M313.2,673.4l6.9-0.6l-0.2-17.5c-1.3,0-2.7,0.1-4,0.3c-0.7,0.1-1.3,0.1-1.8,0.2
	l0,0l-1.5,0.2L313.2,673.4L313.2,673.4z M193.1,92.3l0.5,3.5c1.3-1.9,3.1-3.5,5.3-4.7C197,91.5,195.1,91.9,193.1,92.3z"/>
<linearGradient id="SVGID_27_" gradientUnits="userSpaceOnUse" x1="96.157" y1="535.0048" x2="117.8671" y2="506.1945" gradientTransform="matrix(1 0 0 -1 0 1231)">
	<stop  offset="0" style="stop-color:#4B4E4D"/>
	<stop  offset="0.27" style="stop-color:#444745"/>
	<stop  offset="0.42" style="stop-color:#404240"/>
	<stop  offset="1" style="stop-color:#201600"/>
</linearGradient>
<path class="st27" d="M120.8,684.9l0.9,2.1c2.5,11,5,22,7.5,33c-0.9-0.6-1.7-1.2-2.6-1.8c0.2-4.3-2.4-7.3-11.1-7
	c3.7-2.8,5.8-5.5-3.6-7.5c-0.4-0.5-1.6-1-2-1.5c0.6-0.7,1.8-1.3,2.4-2c1.7-1.4,0.2-2.1-2.7-2.4c-3.9,0.1-5-1.2-5.4-2.8
	c-11,2.6-22.1,5.2-33.1,7.8c-1.6-0.5-2.9-1.1-4.1-1.7c0.1-0.5,0.5-0.9,1.3-1.2c17.1-6.5,34.4-12.2,52.7-13.9L120.8,684.9z"/>
<linearGradient id="SVGID_28_" gradientUnits="userSpaceOnUse" x1="151.0157" y1="448.1371" x2="103.2187" y2="488.2434" gradientTransform="matrix(1 0 0 -1 0 1231)">
	<stop  offset="0" style="stop-color:#FFF243"/>
	<stop  offset="1.000000e-02" style="stop-color:#FFF243"/>
	<stop  offset="0.3" style="stop-color:#D57B43"/>
	<stop  offset="0.48" style="stop-color:#CF7C44"/>
	<stop  offset="1" style="stop-color:#68564B"/>
</linearGradient>
<path class="st28" d="M118.3,745.3c-1.1-4.1,0.1-8,2.4-9l2.1,10.2h-4.2L118.3,745.3L118.3,745.3z M123,747.7l2.8,14.1l-4.2-0.2
	l-2.8-13.9L123,747.7L123,747.7z M126.1,763l3.1,15.4l-4.3-0.5l-3.1-15.1L126.1,763L126.1,763z M129.4,779.7l1.4,6.9l-4.3-0.6
	l-1.4-6.8L129.4,779.7L129.4,779.7z M121.9,736l2.1,10.5h5.1l-0.6-2.5C127,738.1,124,735.9,121.9,736L121.9,736z M129.4,747.7h-5.1
	l2.9,14.1l5.4,0.3L129.4,747.7L129.4,747.7z M132.8,763.4l-5.4-0.3l3.1,15.5l5.8,0.7L132.8,763.4L132.8,763.4z M136.5,780.5
	l-5.8-0.7l1.4,6.9l5.9,0.8L136.5,780.5z"/>
<linearGradient id="SVGID_29_" gradientUnits="userSpaceOnUse" x1="187.1359" y1="534.9882" x2="126.656" y2="597.6171" gradientTransform="matrix(1 0 0 -1 0 1231)">
	<stop  offset="0" style="stop-color:#FFF243"/>
	<stop  offset="1.000000e-02" style="stop-color:#FFF243"/>
	<stop  offset="0.3" style="stop-color:#D57B43"/>
	<stop  offset="0.48" style="stop-color:#CF7C44"/>
	<stop  offset="1" style="stop-color:#68564B"/>
</linearGradient>
<path class="st29" d="M145.7,639.7c-1.7-6.6,1-12.8,4.6-15.2l2.3,13.2L145.7,639.7L145.7,639.7z M152.8,639l-6.9,2l2.7,15.5l6.9-2.6
	L152.8,639L152.8,639z M155.7,655.1L159,674l-6.9,2.5l-3.2-18.8L155.7,655.1L155.7,655.1z M159.2,675.3l-7,2.5l2.5,14.7l7.1-1.8
	L159.2,675.3L159.2,675.3z M162.1,692l1.2,7.1l-6.7,4.6l-1.7-10L162.1,692L162.1,692z M151.5,624l2.3,13.4l6.8-2l-0.4-2.3
	C158.6,624.9,154.8,622.7,151.5,624L151.5,624z M160.9,636.7l2.5,14.3l-6.7,2.5l-2.6-14.8L160.9,636.7L160.9,636.7z M163.5,652.2
	l-6.7,2.5l3.3,19l6.7-2.4L163.5,652.2L163.5,652.2z M167,672.5l2.8,16.3l-6.7,1.7l-2.7-15.6L167,672.5L167,672.5z M170,690l-6.7,1.7
	l1.2,6.7l6.2-4.3L170,690z"/>
<linearGradient id="SVGID_30_" gradientUnits="userSpaceOnUse" x1="264.0203" y1="487.776" x2="223.5552" y2="529.6788" gradientTransform="matrix(1 0 0 -1 0 1231)">
	<stop  offset="0" style="stop-color:#FFF243"/>
	<stop  offset="1.000000e-02" style="stop-color:#FFF243"/>
	<stop  offset="0.3" style="stop-color:#D57B43"/>
	<stop  offset="0.48" style="stop-color:#CF7C44"/>
	<stop  offset="1" style="stop-color:#68564B"/>
</linearGradient>
<path class="st30" d="M236.8,705.5c-0.4-7.3,3-11.1,6.6-11.5l-0.1,10.7L236.8,705.5L236.8,705.5z M243.3,706l-0.1,16.9l-5.8,0.6
	l-0.5-16.7L243.3,706L243.3,706z M243.1,724.1l-0.1,16.4l-5.2-1.3l-0.4-14.5L243.1,724.1L243.1,724.1z M243,741.8l-5.1-1.3l0.2,7.3
	l4.9-0.5L243,741.8L243,741.8z M244.6,694c3.5,0.3,6.9,3.6,6.9,9.8l-6.9,0.8V694L244.6,694z M251.5,705l0.9,16.9l-8,0.8l0.1-16.9
	L251.5,705L251.5,705z M252.5,723.1l1,20l-9.3-2.3l0.1-16.9L252.5,723.1L252.5,723.1z M253.6,744.4l-9.3-2.3v5.1l9.5-1L253.6,744.4z
	"/>
<linearGradient id="SVGID_31_" gradientUnits="userSpaceOnUse" x1="292.0127" y1="584.547" x2="253.3526" y2="637.7581" gradientTransform="matrix(1 0 0 -1 0 1231)">
	<stop  offset="0" style="stop-color:#FFF243"/>
	<stop  offset="1.000000e-02" style="stop-color:#FFF243"/>
	<stop  offset="0.3" style="stop-color:#D57B43"/>
	<stop  offset="0.48" style="stop-color:#CF7C44"/>
	<stop  offset="1" style="stop-color:#68564B"/>
</linearGradient>
<path class="st31" d="M266.2,594.1c-0.4-4.9,0.5-8.1,2-9.3l0.8,9L266.2,594.1L266.2,594.1z M269.1,595.1l1.3,14.4l-2.9,0.1
	c-0.4-4.7-0.8-9.4-1.2-14.3L269.1,595.1L269.1,595.1z M270.6,610.8l1.9,20.2l-3,0.4c-0.6-6.8-1.2-13.6-1.8-20.5L270.6,610.8
	L270.6,610.8z M272.5,632.2l1.9,20.5l-3.2,0.2c-0.5-6.9-1.1-13.7-1.7-20.4L272.5,632.2L272.5,632.2z M269.4,584.2c0.2,0,0.4,0,0.6,0
	c2.6,0.3,5.8,3,6.5,8.9l-6.3,0.6L269.4,584.2L269.4,584.2z M276.6,594.3l-6.3,0.6l1.3,14.5l6.5-0.3L276.6,594.3L276.6,594.3z
	 M278.3,610.4l-6.5,0.3l1.9,20.1l6.7-0.9L278.3,610.4L278.3,610.4z M280.5,631.2l-6.7,0.9l1.9,20.6l7-0.4L280.5,631.2z"/>
<linearGradient id="SVGID_32_" gradientUnits="userSpaceOnUse" x1="347.5512" y1="219.8063" x2="198.9571" y2="312.6582" gradientTransform="matrix(1 0 0 -1 0 1231)">
	<stop  offset="0" style="stop-color:#FFF243"/>
	<stop  offset="1.000000e-02" style="stop-color:#FFF243"/>
	<stop  offset="0.3" style="stop-color:#D57B43"/>
	<stop  offset="0.48" style="stop-color:#CF7C44"/>
	<stop  offset="1" style="stop-color:#68564B"/>
</linearGradient>
<path class="st32" d="M245.4,950.2c-0.6-6.7-0.6-12.9,0.1-18.6c2.6-1.1,5.3-2.2,8.3-2.7c0.7,4.2,1.4,8.5,2.6,12.6
	c0.3-4.4,0.4-8.8,0.6-13.1c3.2-0.4,6.4-0.8,9.6-1.1c0,1.1,0.1,2.3,0.1,3.4c-0.1,3,1.2,7.8,3.2,10.4c-0.6-4.1-1-8.8-0.8-12.8l0.1-1.2
	c3.3-0.3,6.5-0.5,9.8-0.6c0.1,2,0.2,4.1,0.4,6.3c-0.1,3,1,7.6,2.1,10.3c-0.1-4,0-8.8,0.3-12.7c0.1-1.3,0.2-2.6,0.3-3.9
	c3.4-0.1,6.8,0,10.2,0.1c0.7,4.9,1.7,9.7,3,13.3c-0.2-4.5-0.3-8.9-0.3-13.2c1.2,0.1,2.4,0.1,3.7,0.2c1.1,4.2,2,8.8,2.7,13.7
	c3.3,24.7,1.5,49.7,6.4,74.7c-18.6-1-37.8,0.2-57.4,3C249.2,995.9,247.6,973.2,245.4,950.2L245.4,950.2z M246.3,926.6
	c1.8,0,3.5-0.1,5.3-0.2l1.7-0.2c-0.6-3.7-1.1-7.2-1.9-10.2c-0.5,0.1-1,0.3-1.6,0.4C248.3,919.4,247.1,922.9,246.3,926.6L246.3,926.6
	z M257.1,925.8c0.2-3.8,0.4-7.6,0.8-11.1c2.5-0.4,5.1-0.8,7.7-1.1c0.5,3.7,0.7,7.5,0.8,11.3C263.3,925.2,260.2,925.5,257.1,925.8
	L257.1,925.8z M258.2,911.9c0.2-2.1,0.5-4.1,0.9-6c1.4-0.9,2.9-1.7,4.5-2.4c0.7,2.6,1.3,5.1,1.6,7.5
	C262.9,911.3,260.6,911.6,258.2,911.9L258.2,911.9z M269.4,924.6c0.3-3.9,0.5-7.7,0.6-11.4c2.5-0.2,5.1-0.3,7.7-0.4
	c0.6,3.7,0.9,7.4,1.2,11.1C275.7,924,272.5,924.3,269.4,924.6L269.4,924.6z M270,910.5c0-2.9,0-5.9-0.1-8.8c0.5-0.1,1.1-0.2,1.6-0.3
	c1-0.1,1.9-0.2,2.8-0.2c0.6,1.2,1.3,2.4,1.9,3.8c0.4,1.7,0.7,3.3,1,4.9C274.9,910.1,272.5,910.3,270,910.5L270,910.5z M282.3,923.6
	c0.2-3.7,0.3-7.3,0.4-11c2.7,0,5.4,0.1,8.1,0.2c0.3,3.3,0.7,6.9,1.1,10.6C288.7,923.4,285.5,923.5,282.3,923.6L282.3,923.6z
	 M282.6,909.7c0-2.3-0.1-4.5-0.2-6.8c3,1.3,5.7,3.5,8,6.4v0.3C287.9,909.6,285.3,909.6,282.6,909.7L282.6,909.7z M295,923.5
	c0-2.2,0.1-4.3,0.2-6.3c0.9,2,1.7,4.1,2.5,6.5C296.8,923.6,295.9,923.5,295,923.5z"/>
<linearGradient id="SVGID_33_" gradientUnits="userSpaceOnUse" x1="507.5002" y1="127.9003" x2="890.1003" y2="127.9003" gradientTransform="matrix(1 0 0 -1 0 1231)">
	<stop  offset="0" style="stop-color:#7B8790"/>
	<stop  offset="1" style="stop-color:#565F64"/>
</linearGradient>
<path class="st33" d="M889.8,1189.7l-10.5-3.8c-1,0.8-2,1.5-3.1,2.3l4.8,6c-2.9,0.2-5.8,0.5-8.6,0.7c-2.8-1.6-5.5-3.2-8.3-4.8
	c-6.3,0.4-12.6,0.8-19,1.2c3-0.5,6-0.9,9-1.4c0.5-1.3,1-2.5,1.4-3.8c-3.6,0.8-7.2,1.5-10.8,2.3c-9.9-1.6-20.2-2.7-31.9-1.7
	c0-0.9-0.1-1.9-0.1-2.8c-7.6,1.8-15.1,3.6-22.7,5.4c-3.3-1.7-6.5-3.3-9.8-4.9c-16.6-2-33.2-1.5-49.8-1.6c1.8-2.5,2.8-5,7.4-7.5
	c2.1-0.2,4.1-0.3,6.2-0.5c6.8-3.7,13.6-7.5,20.4-11.2c-0.8-1.3-1.7-2.7-2.5-4c-3.5,0.5-7.1,1-10.6,1.5c-4.8-2.7-8.2-5.4-10.3-8.1
	c-4.9-2.2-11.2-3.1-18.7-2.8c-0.8-1.9-1.7-3.8-2.5-5.8c-1.3-1.1-2.5-2.3-3.8-3.4c-4.4,0.2-8.8,0.4-13.1,0.7c-2.2-1.3-4.5-2.7-6.7-4
	c-1.3-0.3-2.7-0.6-4-1c-4.1,0.2-8.3,0.3-12.4,0.5c-6.4-3.3-12.7-6.5-19.1-9.8c-6.8-1.8-15.5-0.8-24.1,0c-1.5-1.2-3.1-2.4-4.6-3.6
	c-8.7,0.7-17.4,1.4-26,2.1c-4.1-1.1-5.5-2.3-4.4-3.4c5.3-2.4,10.6-4.8,16-7.3c2.5-0.6,5-1.2,7.5-1.9c-3.4-1-6.8-2-10.2-3
	c-2.3-2-4.6-4.1-6.9-6.1c-3.8-0.8-8.1-1-13.6,0c-1.9-2.3-3.7-4.6-5.6-6.9c-5-0.2-9.8-0.9-13.9-2.8c-5.6-3.5-6.6-7-6.9-10.5
	c1.4-0.5,2.9-0.9,4.3-1.4c-0.2-1.7-0.5-3.4-0.7-5.1c-1.7-0.7-3.3-1.4-5-2.2c-2.6,0.3-5.2,0.6-7.8,0.9c-3.3-2.7-6.5-5.3-9.8-7.9
	c-4.9,0.2-9.8,0.4-14.7,0.6c0.7-2,1.3-4,2-6c1.9-0.1,3.9-0.1,5.8-0.2c2.1-2.4,4.1-4.8,6.2-7.2c-1.4-1.4-2.8-2.9-4.3-4.3
	c-0.2-1.5-0.4-3-0.6-4.4c-5-0.2-9.9-0.3-14.9-0.5c-0.8-2-1.5-4-2.3-6c-5-1.1-10.1-2.2-15.1-3.3c-1.2-2.7-2.4-5.4-3.6-8.1l7.4-17.6
	l-0.1,0.6c3.4,4.4,6.8,8.9,10.3,13.3c4.1,0.9,8.2,2.1,11.6,4.5c-1.8,9.8,2.7,15.1,13.6,15.9c7.2-0.9,13.4,0.8,17.6,8.1
	c5.1,3.3,10.7,5.8,17.3,7.3c-4.9-0.1-11.3-1.3-15.1-1.5c-1.9-0.1,0.3,1.9,0.1,2.8c7.8,2.2,15.3,4.6,21.5,6.1
	c-0.2-1.1-0.5-2.1-0.7-3.2c2.8,0,4.9,0.7,6.3,2.1c0.7,2.4,2.2,4.3,4.4,5.7l-0.9-8.4c1.2,1.3,2.2,3.2,2.8,5.8c6,6.4,12,12.8,18,19.2
	c5.6,1.1,11.1,2.3,16.7,3.4c0.9,2.3,1.8,4.6,2.7,6.9l17.2,5.6l-11.1,1.3c-3.5,2.6-7,5.2-10.6,7.8c7.9-0.9,15.9-1.8,23.8-2.7
	c1.5-1,3-2.1,4.5-3.1c4.4-0.2,8.8-0.4,13.2-0.6c1.5,0.9,3.1,1.8,4.6,2.7c2.7,1,5.5,2,8.2,3c2.8,1.5,5.5,2.9,8.3,4.4
	c2.4,2,5.1,4,9.2,5.1c4.8,3.7,11.9,5.9,19.4,7.9c3.9,0.2,7.7,0.4,11.6,0.5c3.5,1.6,6.9,3.2,10.4,4.8l6.9,0.9l-0.1,0.8
	c8.5,2,17,3.9,25.5,5.9c2.9,2.9,5.8,5.9,8.7,8.8c7.1,1.3,14.1,2.5,21.2,3.8c-0.4,1.5-0.9,3-1.3,4.5c5.4,4.4,16.9,8.8,37.3,13.2
	c11.2,2.8,22.3,5.6,33.5,8.4c2.9,1.7,5.8,3.3,8.7,5L889.8,1189.7z"/>
<linearGradient id="SVGID_34_" gradientUnits="userSpaceOnUse" x1="478.0217" y1="445.1345" x2="441.2655" y2="492.1802" gradientTransform="matrix(1 0 0 -1 0 1231)">
	<stop  offset="0" style="stop-color:#FFF243"/>
	<stop  offset="1.000000e-02" style="stop-color:#FFF243"/>
	<stop  offset="0.3" style="stop-color:#D57B43"/>
	<stop  offset="0.48" style="stop-color:#CF7C44"/>
	<stop  offset="1" style="stop-color:#68564B"/>
</linearGradient>
<path class="st34" d="M457.3,738.8c-0.1-5.2,3-8,6-7.9l0.1,10.9l-6.2-0.7L457.3,738.8L457.3,738.8z M464.5,731.1
	c2.5,0.8,4.5,3.7,3.8,8.9l-0.2,2.3l-3.6-0.4L464.5,731.1L464.5,731.1z M468.1,743.5l-0.7,10.6l-1.8-0.3h-0.1h-0.1h-2.2l1.3-9.5l0,0
	l0,0v-1.2L468.1,743.5L468.1,743.5z M462.1,753.9l1.3-9.6V743l-6.4-0.7c-0.3,4-0.7,7.9-1,11.7L462.1,753.9L462.1,753.9z
	 M467.3,755.3l-1.1,16l-5.3,1l2.3-17.2h2.3L467.3,755.3L467.3,755.3z M466.2,772.6l-1.2,17.6l-5.1,0.9l0.9-17.5L466.2,772.6
	L466.2,772.6z M458.7,791.3l-6,1c0.5-6.7,1.1-13.1,1.7-19.5l5.2,0.7L458.7,791.3L458.7,791.3z M454.5,771.6l5.2,0.7l2.3-17.2l-6,0.1
	C455.4,760.7,454.9,766.2,454.5,771.6z"/>
<linearGradient id="SVGID_35_" gradientUnits="userSpaceOnUse" x1="386.0392" y1="336.5217" x2="310.9084" y2="426.0592" gradientTransform="matrix(1 0 0 -1 0 1231)">
	<stop  offset="0" style="stop-color:#FFF243"/>
	<stop  offset="1.000000e-02" style="stop-color:#FFF243"/>
	<stop  offset="0.3" style="stop-color:#D57B43"/>
	<stop  offset="0.48" style="stop-color:#CF7C44"/>
	<stop  offset="1" style="stop-color:#68564B"/>
</linearGradient>
<path class="st35" d="M335.4,813.1c-0.1-5.3,0.4-9.6,1.3-13l3.7,4c-0.9,2.5-0.9,5.6-0.7,8.7L335.4,813.1L335.4,813.1z M341.5,805.1
	l6.7,7.1l0,0l-7.2,0.5C340.9,810,340.9,807.3,341.5,805.1L341.5,805.1z M337.2,798.7l3.8,4.1c1.1-2.3,3.1-4,6.5-4.5l-0.4-8.5
	C342.7,790.1,339.2,792.9,337.2,798.7L337.2,798.7z M348.3,789.8c4.6,0.1,8.2,2.7,10.6,8l-3.4,4.4c-1.6-2.4-3.8-4-6.8-3.9
	L348.3,789.8L348.3,789.8z M354.7,803.2l-0.1-0.2c-1.3-2.1-3.2-3.6-5.8-3.6l0.5,10.7L354.7,803.2L354.7,803.2z M348.1,810.3
	l-0.5-10.7c-3,0.5-4.7,2.1-5.6,4.2L348.1,810.3L348.1,810.3z M359.5,799.1l-3.3,4.2c1.3,2.4,2,5.5,2.4,8.3l3.3-0.2
	C361.5,806.4,360.7,802.3,359.5,799.1L359.5,799.1z M357.4,811.6l-8,0.5V812l5.9-7.7C356.4,806.6,357,809.2,357.4,811.6L357.4,811.6
	z M362,812.6l1.1,18.9l-12.7-0.6l-0.9-17.5L362,812.6L362,812.6z M363.2,832.7l0.9,15.6l-12.8,1.3l-0.9-17.4L363.2,832.7
	L363.2,832.7z M364.2,849.5l-12.8,1.3l1,19.4l13-0.9L364.2,849.5L364.2,849.5z M365.4,870.5l1.5,25.2l-13.3-0.5l-1.2-23.8
	L365.4,870.5L365.4,870.5z M366.9,896.9l0.4,6.4L354,904l-0.4-7.7L366.9,896.9L366.9,896.9z M352.8,904.1l-13,0.7
	c-0.2-3-0.3-6-0.5-8.9l13.1,0.5L352.8,904.1L352.8,904.1z M339.3,894.6c-0.4-7.5-0.8-14.8-1.2-22.1l13.1-0.9l1.2,23.6L339.3,894.6
	L339.3,894.6z M338,871.2c-0.3-6.3-0.7-12.7-1-19l13.1-1.3l1,19.4L338,871.2L338,871.2z M337,851l13.1-1.3l-0.9-17.6l-13,0.6
	C336.4,838.8,336.7,844.9,337,851L337,851z M336.1,831.5c-0.2-5.6-0.4-11.4-0.6-17.2l12.8-0.8l0.9,17.4L336.1,831.5z"/>
<linearGradient id="SVGID_36_" gradientUnits="userSpaceOnUse" x1="558.7564" y1="417.1025" x2="516.1661" y2="451.5915" gradientTransform="matrix(1 0 0 -1 0 1231)">
	<stop  offset="0" style="stop-color:#FFF243"/>
	<stop  offset="1.000000e-02" style="stop-color:#FFF243"/>
	<stop  offset="0.3" style="stop-color:#D57B43"/>
	<stop  offset="0.48" style="stop-color:#CF7C44"/>
	<stop  offset="1" style="stop-color:#68564B"/>
</linearGradient>
<path class="st36" d="M534.2,785.2c1.1-5.8,5-10.5,8.2-11.2l-2.1,11.6L534.2,785.2L534.2,785.2z M543.7,773.9l-2.2,11.8l5.1,0.4
	l0.1-0.8C547.9,777.5,546.2,774.2,543.7,773.9L543.7,773.9z M546.4,787.4l-2.2,14.1l-5.7,0.6l2.8-15.1L546.4,787.4L546.4,787.4z
	 M537.2,802.2l2.8-15.3l-6.1-0.4l-2.6,16.1L537.2,802.2L537.2,802.2z M544,802.7l-2.1,13.1l-6.1,1.1l2.5-13.5L544,802.7L544,802.7z
	 M534.5,817.1l2.5-13.6l-5.8,0.3l-2.3,14.3L534.5,817.1z"/>
<linearGradient id="SVGID_37_" gradientUnits="userSpaceOnUse" x1="290.3632" y1="262.7558" x2="275.749" y2="-16.0982" gradientTransform="matrix(1 0 0 -1 0 1231)">
	<stop  offset="0" style="stop-color:#A5724D"/>
	<stop  offset="0.1" style="stop-color:#845F37"/>
	<stop  offset="0.3" style="stop-color:#5E4A2E"/>
	<stop  offset="0.58" style="stop-color:#3F3325"/>
	<stop  offset="0.9" style="stop-color:#201600"/>
	<stop  offset="1" style="stop-color:#201600"/>
</linearGradient>
<path class="st37" d="M249.7,1007.3L249.7,1007.3c0.3,3.7,0.5,7.4,0.7,11.1c19.6-2.7,38.8-4,57.4-3c-0.4-2.1-0.8-4.1-1.1-6.2h0.3
	c1.3,4,2.7,8,4,12c1.4-0.1,2.8-0.6,4.3-3.5c0.6,3.1,1.3,6.1,1.9,9.2c3.4,8.4,8.4,16.8,18.9,25.2c12.5,3.6,21.2,9.8,30.3,15.7
	c19.3,9.3,36.8,20.4,53.9,31.9c7.3,4.2,7.7,7.8,4.4,10.9c-3.7,1-7.5,1.9-11.2,2.9c3.8,1,7.3,2,16.1,2.5c5.8-0.5,8.1,4.3,10,9.9
	c0.5,1.8,1,3.6,1.4,5.4c1,1.8,2,3.6,3,5.4c-1.9,0.5-3.7,0.9-5.6,1.4c2.8,1,5.6,2.1,8.4,3.1c2.3,1.7,0.4,3.4-5.6,5.1
	c-3.2,1.1-6.3,2.1-9.5,3.2c-3.6,0.9,0.5,2.3,5.6,3.8c2.8,1.6,0.9,3.3-5.7,4.9c-2.5,0.2-5,0.3-7.5,0.5c-9.5,2.2-3,4.4,5.7,6.6
	c2.2,2.3-3.9,7-12.2,12.1c-16.1,3-30.9,2-45.9,1.6c12.4,1.6,24.9,3.2,37.3,4.8c-7.1,1.2-14.1,2.4-21.2,3.6c-0.6,2.3,5.9,5,15.8,7.9
	c-3.8,4.3-10.2,8.9-17.9,13.7c-9.6,2.5,8.2,5,24.3,7.5c-36.7,11.4-36,22.7-27.6,34.1c-5.9,5.3-11.7,10.7-17.6,16
	c-76-25.5-160.2-40.8-254.3-43.8c21.9-4.7,43.8-9.4,65.8-14.2c-7.3-5.1-14.5-10.1-21.8-15.2c11.7-6.1,23.5-12.3,35.2-18.4
	c15.1-7.7,30.3-15.3,45.4-23c9.5-2,19.1-3.9,28.6-5.9c0.6-2.8,1.8-5.6,6.3-8.3c2.9-1.4,5.9-2.9,8.9-4.3c4.3-1,8.7-1.9,13-2.9
	c-3.9-0.7-7.8-1.4-11.6-2.1c-2.7-1.1-5.4-2.1-8.2-3.2c4.9-5.1,10.8-9.7-0.5-22.1c-8-10.8-16-21.5-24-32.3c-0.4-4.3-2.5-7.3-7.9-9.9
	c1.6-2.8,2.8-6.1,1.1-12.2c3.5-4.3,5.2-8.6,5.9-12.9c-0.8-2.8-1.7-5.5-2.5-8.3C248.2,1024.7,249.2,1016.4,249.7,1007.3z"/>
<linearGradient id="SVGID_38_" gradientUnits="userSpaceOnUse" x1="132.2601" y1="124.3501" x2="151.5601" y2="124.3501" gradientTransform="matrix(1 0 0 -1 0 1231)">
	<stop  offset="0" style="stop-color:#7B8790"/>
	<stop  offset="1" style="stop-color:#565F64"/>
</linearGradient>
<path class="st38" d="M141.8,1108.7c-1.4-2.4-2-4.7-1.7-6.9c1.4-0.1,2.9-0.3,4.3-0.4c-0.3,1.2-0.4,2.3,0.8,3.5
	c0.3,0.7,0.6,1.4,0.9,2.1c1.6-1.2,3.2-2.4,4.8-3.6c0.2,0.3,0.4,0.7,0.6,1c-2.7,2.5-5.5,5-8.2,7.5c-2.4-0.9-7.5-1.1-11.1-0.5
	c1.1-2,2.8-5.1,4.8-6.1C138.7,1106.4,140.3,1107.6,141.8,1108.7z"/>
<linearGradient id="SVGID_39_" gradientUnits="userSpaceOnUse" x1="149.2" y1="173.95" x2="178.2" y2="173.95" gradientTransform="matrix(1 0 0 -1 0 1231)">
	<stop  offset="0" style="stop-color:#7B8790"/>
	<stop  offset="1" style="stop-color:#565F64"/>
</linearGradient>
<polygon class="st39" points="175.1,1045 176.1,1045.4 177.2,1050.7 178.2,1054.1 175.1,1059.2 177.5,1060.7 169.5,1063.5 
	162.5,1069.1 149.2,1068 154.7,1065.2 159.5,1058.3 160.2,1056 164.4,1052.3 "/>
<linearGradient id="SVGID_40_" gradientUnits="userSpaceOnUse" x1="66.3232" y1="58.6954" x2="24.7066" y2="26.181" gradientTransform="matrix(1 0 0 -1 0 1231)">
	<stop  offset="0" style="stop-color:#7B8790"/>
	<stop  offset="0.47" style="stop-color:#5F6A70"/>
	<stop  offset="1" style="stop-color:#201600"/>
</linearGradient>
<path class="st40" d="M24.5,1193.5c9.1-4.2,18.2-8.4,27.3-12.6c4.9,1,11.2,0.8,18.6-0.3c-18.6,6.3-36.4,14.4-54.2,22.4
	C21.1,1199.7,25.2,1196.4,24.5,1193.5z"/>
<linearGradient id="SVGID_41_" gradientUnits="userSpaceOnUse" x1="45.0584" y1="21.2845" x2="51.6615" y2="0.9622" gradientTransform="matrix(1 0 0 -1 0 1231)">
	<stop  offset="0" style="stop-color:#201600"/>
	<stop  offset="1" style="stop-color:#565F64"/>
</linearGradient>
<path class="st41" d="M1.2,1227c16.7,1.7,39.3,2.7,59.5-0.3c9.3-2.9,18.3-4.7,27.2-6.3c1.1-2.5,2.7-4.9,7.7-7.4
	c-12.7-3.8-26.7-2.5-40.3-2.5c-8.5,1-17,2.5-25.1,5.3C23.1,1220.5,9.9,1224.4,1.2,1227z"/>
<linearGradient id="SVGID_42_" gradientUnits="userSpaceOnUse" x1="154.9287" y1="741.1447" x2="107.2204" y2="695.0732" gradientTransform="matrix(1 0 0 -1 0 1231)">
	<stop  offset="0" style="stop-color:#A5724D"/>
	<stop  offset="0.1" style="stop-color:#845F37"/>
	<stop  offset="0.3" style="stop-color:#5E4A2E"/>
	<stop  offset="0.58" style="stop-color:#3F3325"/>
	<stop  offset="0.9" style="stop-color:#201600"/>
	<stop  offset="1" style="stop-color:#201600"/>
</linearGradient>
<path class="st42" d="M121.6,448c1.6-0.2,3-0.8,4.3-1.6c12.5,33.8,27.7,67.5,45.8,101.3c-3.9,2.9-9.1,3.6-15.1-0.4
	c-5.5-0.1-11-1-16.9-8C128.2,510,123.1,479.1,121.6,448z"/>
<linearGradient id="SVGID_43_" gradientUnits="userSpaceOnUse" x1="239.0517" y1="876.1933" x2="190.0381" y2="863.0602" gradientTransform="matrix(1 0 0 -1 0 1231)">
	<stop  offset="0" style="stop-color:#A5724D"/>
	<stop  offset="0.1" style="stop-color:#845F37"/>
	<stop  offset="0.3" style="stop-color:#5E4A2E"/>
	<stop  offset="0.58" style="stop-color:#3F3325"/>
	<stop  offset="0.9" style="stop-color:#201600"/>
	<stop  offset="1" style="stop-color:#201600"/>
</linearGradient>
<path class="st43" d="M272.5,548.5c-2,5-4.8,8.1-9.5,7.5c-12.1-1.5-24.7-13.9-28.9-41c-18.2-120.1-25.1-239.1-34.4-357.9
	C215.6,287.6,240.1,418,272.5,548.5z"/>
<linearGradient id="SVGID_44_" gradientUnits="userSpaceOnUse" x1="589.1557" y1="655.2628" x2="545.3741" y2="465.6239" gradientTransform="matrix(1 0 0 -1 0 1231)">
	<stop  offset="0" style="stop-color:#A5724D"/>
	<stop  offset="0.1" style="stop-color:#845F37"/>
	<stop  offset="0.3" style="stop-color:#5E4A2E"/>
	<stop  offset="0.58" style="stop-color:#3F3325"/>
	<stop  offset="0.9" style="stop-color:#201600"/>
	<stop  offset="1" style="stop-color:#201600"/>
</linearGradient>
<path class="st44" d="M567.8,761.6c-7,5.6-17.6-1.7-18.7-10.6c-6.4-55.6,3.6-97.1,12.6-149.7c-5.5,52.5-5.4,104.5,4.5,155.4
	C566.2,758.7,566.8,760.6,567.8,761.6z"/>
<linearGradient id="SVGID_45_" gradientUnits="userSpaceOnUse" x1="552.7766" y1="1010.423" x2="492.4832" y2="581.4136" gradientTransform="matrix(1 0 0 -1 0 1231)">
	<stop  offset="0" style="stop-color:#A5724D"/>
	<stop  offset="0.1" style="stop-color:#845F37"/>
	<stop  offset="0.3" style="stop-color:#5E4A2E"/>
	<stop  offset="0.58" style="stop-color:#3F3325"/>
	<stop  offset="0.9" style="stop-color:#201600"/>
	<stop  offset="1" style="stop-color:#201600"/>
</linearGradient>
<path class="st45" d="M520.4,648.8c-13.5-6.1-29.4-24.1-30.4-49.3c0-118.3,12.5-207.5,26.9-321.5
	C512.1,409.8,506.6,543.6,520.4,648.8z"/>
<linearGradient id="SVGID_46_" gradientUnits="userSpaceOnUse" x1="147.1473" y1="650.7515" x2="191.5489" y2="505.5205" gradientTransform="matrix(1 0 0 -1 0 1231)">
	<stop  offset="0" style="stop-color:#4B4E4D"/>
	<stop  offset="0.27" style="stop-color:#444745"/>
	<stop  offset="0.42" style="stop-color:#404240"/>
	<stop  offset="1" style="stop-color:#201600"/>
</linearGradient>
<path class="st46" d="M103.2,574.9c25.5-6.2,51.3-10.7,76.8-12.2l0.2,0.4l9.7,2l2.6,12.7l9.3-6.6l0.5,0.3c-2.1,2.5-4.1,5-6.2,7.6
	c-7.6,4.5-10.1,11.6-11.2,19.4c0.4,2.5,2,4.2,4.9,5.1c2.3,20.3,4.5,40.6,6.8,60.9c4.3,2.7,8.2,6.9,12.5,11.3
	c1.6,19.8,3.2,39.6,4.9,59.3c-0.2-3.7-1.7-7.5-3.5-11.2c-3.2-3.7-6.4-6.4-8.3-11c-1.9-8.7-3.8-17.4-5.7-26.2
	c-2.9-4-5.8-7.9-8.7-11.9c-4.6-1.7-4.3-4.3,0.9-7.7c-0.9-5.3-5.7-9.5-2.6-16.8c-1.4-9.7-2.9-19.6-4.3-28.5c3.6-5.7,5.9-8.2-1.1-10.6
	c8.3-1.3,9.1-8.2-5.4-15.4c-6.5-3.3-8-6.3-4.8-8.8c9.6-1.9,2-3.9-7.9-5.8c6-4.2,9.6-7.9-3.2-8.1c-28,1.4-49.5,4.4-69.2,10l-0.1-0.3
	L103.2,574.9z"/>
<linearGradient id="SVGID_47_" gradientUnits="userSpaceOnUse" x1="485.653" y1="567.8632" x2="517.9711" y2="518.0977" gradientTransform="matrix(1 0 0 -1 0 1231)">
	<stop  offset="0" style="stop-color:#4B4E4D"/>
	<stop  offset="0.27" style="stop-color:#444745"/>
	<stop  offset="0.42" style="stop-color:#404240"/>
	<stop  offset="1" style="stop-color:#201600"/>
</linearGradient>
<path class="st47" d="M442.8,650.7l4.2,3.6l-1.7,13.4l-4.2,0.7L442.8,650.7L442.8,650.7z M450.6,649.4c8.5-1,15.9-1.1,24.4-0.2
	c-0.1,6.1-0.9,12-0.9,18.1c-1.4-0.1-2,0.1-3.4,0.1c0.4-5.1,0.8-10.2,1.1-15.3c-7.5-1.4-15-1.4-22.5-0.2
	C449.6,650.7,450.3,650.6,450.6,649.4L450.6,649.4z M483.1,649.4c5.8-0.6,12.8,0.5,20.2,2.2c-0.1,1.2-0.2,2.3-0.2,3.5
	c-6.7-2.1-13.5-3.3-20.2-2.9C482.9,651.3,483,650.2,483.1,649.4L483.1,649.4z M527.7,709.3c0.2-0.3,0.4-0.6,0.5-0.9l5.4-45.3
	l-10.3-9.9h-0.5c-1.8,2.8-5.1,2.2-8.8,1.1c1.2,2,1.1,4.1,0.4,6.1c4.9,0.5,6.6,7.2,1.5,27.4c5.9,4.1,7.5,9,2.7,15
	c-15.5-8.5-29.8-11.2-43.7-12.2C494.9,693.8,511.9,700.8,527.7,709.3z"/>
<linearGradient id="SVGID_48_" gradientUnits="userSpaceOnUse" x1="287.95" y1="567.3564" x2="287.95" y2="423.7899" gradientTransform="matrix(1 0 0 -1 0 1231)">
	<stop  offset="0" style="stop-color:#4B4E4D"/>
	<stop  offset="0.19" style="stop-color:#373D3E"/>
	<stop  offset="0.81" style="stop-color:#211800"/>
	<stop  offset="1" style="stop-color:#201600"/>
</linearGradient>
<path class="st48" d="M269.7,697.6c4.7-1.2,16.3-1.7,18.6-3.6c2.1-1.8-0.8-5.5-1.3-8c-0.4-2.2,0.1-4.1,0.2-6.1
	c3.5-2.7,5.3-6.2,6.8-9.8c4.1,54.1,8.1,108.1,12.2,162.2c-1.8-13.8-2.7-27.7-8.6-41.5c0.4-10,2.6-19.3-0.8-25.5
	c1.6-5.2,1.4-11.9-2.4-16.9c-1.2-1.5-3.2-1.1-5-2.7c5.2-6.8,5.3-16.6,2-21.9c-2.1-3.4-5.9-2.9-9.7-5c5.8-2.5,9.6-6.7,10.2-9.9
	c0.3-1.9-2-5.7-3.2-7.1C286.7,699.6,275.4,698.6,269.7,697.6z"/>
<linearGradient id="SVGID_49_" gradientUnits="userSpaceOnUse" x1="256.5193" y1="657.9628" x2="267.2038" y2="581.9388" gradientTransform="matrix(1 0 0 -1 0 1231)">
	<stop  offset="0" style="stop-color:#212521"/>
	<stop  offset="4.000000e-02" style="stop-color:#444745"/>
	<stop  offset="0.16" style="stop-color:#404240"/>
	<stop  offset="0.39" style="stop-color:#201700"/>
	<stop  offset="1" style="stop-color:#201600"/>
</linearGradient>
<path class="st49" d="M259.8,567.5c4.4-0.6,8.7-1.2,13.1-1.8c-24.4,9.8-12.8,55.6-8.6,91.1c-5,0.5-7.6,0.8-12.6,1.4
	C246.9,624.8,235.7,587.2,259.8,567.5z"/>
<linearGradient id="SVGID_50_" gradientUnits="userSpaceOnUse" x1="524.9185" y1="482.6814" x2="442.1612" y2="277.85" gradientTransform="matrix(1 0 0 -1 0 1231)">
	<stop  offset="0" style="stop-color:#212521"/>
	<stop  offset="9.000000e-02" style="stop-color:#444745"/>
	<stop  offset="0.16" style="stop-color:#404240"/>
	<stop  offset="0.42" style="stop-color:#201700"/>
	<stop  offset="1" style="stop-color:#201600"/>
</linearGradient>
<path class="st50" d="M493.8,759.9c4.7-0.5,9.4-2.9,12.5-5.3c4.5-3.6,3.2-7.9,5.5-13.9c-4.5,47.9-8.9,95.8-13.4,143.7
	c-0.4-17.3,1.1-34.5-0.5-51.8c-0.6-6.8,2.9-13.8-3.6-20.4c7.6-9.5,2.1-15.6-16.3-18.2c4.2-0.8,11.1-0.5,14.4-2.2
	c2.5-1.4,1.7-5,2.6-6.3c0.7-1-3.7-3.1-2.2-2.9c-0.2-1.2,4.3-1.9,4.1-3.1c-0.3-2-3.3-5.2-6.5-6.1c9.2-0.9,11.2-3.9,12.1-6.3
	C503.5,764.7,496.7,762.4,493.8,759.9z"/>
</svg>
