<?xml version="1.0" encoding="utf-8"?>
<!-- Generator: Adobe Illustrator 22.0.1, SVG Export Plug-In . SVG Version: 6.00 Build 0)  -->
<svg version="1.1" id="Слой_1" xmlns="http://www.w3.org/2000/svg" xmlns:xlink="http://www.w3.org/1999/xlink" x="0px" y="0px"
	 viewBox="0 0 28 28" style="enable-background:new 0 0 28 28;" xml:space="preserve">
<style type="text/css">
	.st0{fill:#00F6D2;}
	.st1{fill:#00F6D2;stroke:#000000;stroke-width:3.2711;stroke-miterlimit:10;}
	.st2{fill:#171717;}
</style>
<ellipse class="st0" cx="14" cy="14.3" rx="14" ry="12.2"/>
<ellipse class="st1" cx="13.9" cy="14.3" rx="11.6" ry="10"/>
<ellipse class="st2" cx="14" cy="14.3" rx="11.8" ry="10.2"/>
<ellipse class="st2" cx="13.9" cy="14.4" rx="8.3" ry="9.7"/>
<ellipse class="st2" cx="14" cy="14.1" rx="3.9" ry="9.9"/>
<path class="st0" d="M23.5,18.4c-0.2-0.1-0.5-0.1-0.7,0c-1.4,1-4.9,1.6-8.9,1.6S6.5,19.3,5,18.4c-0.2-0.1-0.5-0.1-0.7,0
	c-0.7,0.4,3.6,4.8,9.6,4.8C19.8,23.1,24.2,18.7,23.5,18.4z"/>
<path class="st2" d="M10.7,18.3v0.9c0,0.3,0.3,0.5,0.5,0.5h5.2c0.3,0,0.5-0.3,0.5-0.5v-0.9H10.7z"/>
<path class="st0" d="M5.7,9.4c1.3,1.4,5,4.6,6.6,5.8c0.3,0.2,0.1,0.7-0.2,0.7L5,15.5c-0.5,0-0.8-0.4-0.8-0.8L4.5,10
	C4.5,9.5,5.3,8.9,5.7,9.4z"/>
<path class="st2" d="M8.8,5.4c1.4,0.2,3.1,0.3,5.1,0.3s3.7-0.1,5.1-0.3c-1.4-0.6-3.3-1-5.1-1S10.4,4.7,8.8,5.4z"/>
<path class="st0" d="M22.1,9.4c-1.3,1.4-5,4.5-6.6,5.8c-0.3,0.2-0.1,0.7,0.2,0.7l7-0.4c0.5,0,0.8-0.4,0.8-0.8L23.4,10
	C23.4,9.5,22.6,8.9,22.1,9.4z"/>
</svg>
