<?xml version="1.0" encoding="utf-8"?>
<!-- Generator: Adobe Illustrator 22.0.1, SVG Export Plug-In . SVG Version: 6.00 Build 0)  -->
<svg version="1.1" id="Слой_1" xmlns="http://www.w3.org/2000/svg" xmlns:xlink="http://www.w3.org/1999/xlink" x="0px" y="0px"
	 viewBox="0 0 180 47" style="enable-background:new 0 0 180 47;" xml:space="preserve">
<style type="text/css">
	.st0{fill:#020202;}
	.st1{fill:url(#SVGID_1_);}
	.st2{fill:url(#SVGID_2_);}
	.st3{fill:url(#SVGID_3_);}
	.st4{fill:url(#SVGID_4_);}
	.st5{fill:url(#SVGID_5_);}
	.st6{fill:url(#SVGID_6_);}
	.st7{fill:url(#SVGID_7_);}
	.st8{fill:url(#SVGID_8_);}
	.st9{fill:url(#SVGID_9_);}
	.st10{fill:#FFFFFF;}
	.st11{display:none;fill:#020202;}
	.st12{display:none;fill:url(#SVGID_10_);}
	.st13{fill:#4EB1AD;stroke:#0E0F0F;stroke-width:0.1;stroke-miterlimit:10;}
	.st14{fill:#BCBBBB;}
</style>
<path class="st0" d="M176,42c0,1.7-1.7,3.2-3.7,3.2H7.7c-2,0-3.7-1.4-3.7-3.2V5c0-1.7,1.7-3.2,3.7-3.2h164.5c2,0,3.7,1.4,3.7,3.2V42
	z"/>
<linearGradient id="SVGID_1_" gradientUnits="userSpaceOnUse" x1="89.9955" y1="2.4446" x2="89.9955" y2="43.8158">
	<stop  offset="0" style="stop-color:#000000"/>
	<stop  offset="1" style="stop-color:#182120"/>
</linearGradient>
<path class="st1" d="M172.3,44.5H7.7c-1.6,0-3-1.1-3-2.5V5c0-1.4,1.3-2.5,3-2.5h164.5c1.6,0,3,1.1,3,2.5v37
	C175.2,43.4,173.9,44.5,172.3,44.5L172.3,44.5z"/>
<path class="st11" d="M101,38H79c-1.9,0-3.4,1.3-3.4,2.9v3.6h28.8v-3.6C104.4,39.3,102.9,38,101,38z"/>
<linearGradient id="SVGID_2_" gradientUnits="userSpaceOnUse" x1="89.9955" y1="46.3911" x2="89.9955" y2="41.6552">
	<stop  offset="0" style="stop-color:#3E6367"/>
	<stop  offset="1" style="stop-color:#4FB1A4"/>
</linearGradient>
<path style="display:none;fill:url(#SVGID_2_);" d="M101,38.3H79c-1.7,0-3,1.1-3,2.6v3.6H104v-3.6C104,39.5,102.7,38.3,101,38.3z"/>
<g>
	<path class="st14" d="M63.1,17.7h2.8c3.2,0,5.1,1.7,5.1,5.2s-1.9,5.3-5,5.3h-2.9V17.7z M65.7,26.6c2.1,0,3.3-1.2,3.3-3.8
		c0-2.6-1.2-3.7-3.3-3.7h-0.8v7.5H65.7z"/>
	<path class="st14" d="M72.5,22.9c0-3.4,1.9-5.4,4.6-5.4s4.6,2,4.6,5.4c0,3.4-1.9,5.5-4.6,5.5S72.5,26.2,72.5,22.9z M79.8,22.9
		c0-2.3-1.1-3.8-2.7-3.8s-2.7,1.4-2.7,3.8s1.1,3.9,2.7,3.9S79.8,25.2,79.8,22.9z"/>
	<path class="st14" d="M83.9,17.7h1.9l3.3,5.9l1.1,2.2h0.1c-0.1-1.1-0.2-2.4-0.2-3.6v-4.5h1.8v10.5h-1.9l-3.3-5.9L85.4,20h-0.1
		c0.1,1.1,0.2,2.4,0.2,3.5v4.6h-1.8V17.7z"/>
	<path class="st14" d="M96.4,17.7h2.2l3.4,10.5h-2l-1.6-5.6c-0.3-1.1-0.6-2.3-0.9-3.5h-0.1c-0.3,1.2-0.6,2.3-0.9,3.5l-1.6,5.6H93
		L96.4,17.7z M95,23.8h4.9v1.5H95V23.8z"/>
	<path class="st14" d="M104.4,19.2h-3v-1.6h7.9v1.6h-3v8.9h-1.9V19.2z"/>
	<path class="st14" d="M111,17.7h6.3v1.6h-4.4v2.7h3.8v1.6h-3.8v3.1h4.6v1.6H111V17.7z"/>
</g>
</svg>
