<?xml version="1.0" encoding="utf-8"?>
<!-- Generator: Adobe Illustrator 22.0.1, SVG Export Plug-In . SVG Version: 6.00 Build 0)  -->
<svg version="1.1" id="Слой_1" xmlns="http://www.w3.org/2000/svg" xmlns:xlink="http://www.w3.org/1999/xlink" x="0px" y="0px"
	 viewBox="0 0 196 137" style="enable-background:new 0 0 196 137;" xml:space="preserve">
<style type="text/css">
	.st0{fill:#00F6D2;}
	.st1{fill:#00F6D2;stroke:#000000;stroke-width:3.2711;stroke-miterlimit:10;}
	.st2{fill:#171717;}
</style>
<title>Group</title>
<desc>Created with Sketch.</desc>
<ellipse class="st0" cx="98" cy="68.4" rx="75.4" ry="65.7"/>
<ellipse class="st1" cx="97.6" cy="68.7" rx="69" ry="59.5"/>
<ellipse class="st2" cx="98.2" cy="68.7" rx="70.2" ry="60.7"/>
<ellipse class="st2" cx="97.6" cy="69.3" rx="49.4" ry="57.7"/>
<ellipse class="st2" cx="98.2" cy="67.5" rx="23.2" ry="58.9"/>
<path class="st0" d="M154.7,93.1c-1.2-0.6-3-0.6-4.2,0c-8.3,5.9-29.1,9.5-52.9,9.5s-44-4.2-52.9-9.5c-1.2-0.6-3-0.6-4.2,0
	c-4.2,2.4,21.4,28.5,57.1,28.5C132.7,121.1,158.9,94.9,154.7,93.1z"/>
<path class="st2" d="M78.6,92.5v5.4c0,1.8,1.8,3,3,3h30.9c1.8,0,3-1.8,3-3v-5.4H78.6z"/>
<path class="st0" d="M48.9,39.6c7.7,8.3,29.7,27.4,39.3,34.5c1.8,1.2,0.6,4.2-1.2,4.2l-42.2-2.4c-3,0-4.8-2.4-4.8-4.8l1.8-28
	C41.7,40.2,46.5,36.6,48.9,39.6z"/>
<path class="st2" d="M67.3,15.8c8.3,1.2,18.4,1.8,30.3,1.8s22-0.6,30.3-1.8c-8.3-3.6-19.6-5.9-30.3-5.9S76.8,11.6,67.3,15.8z"/>
<path class="st0" d="M146.4,39.6c-7.7,8.3-29.7,26.8-39.3,34.5c-1.8,1.2-0.6,4.2,1.2,4.2l41.6-2.4c3,0,4.8-2.4,4.8-4.8l-0.6-28
	C154.1,40.2,149.4,36.6,146.4,39.6z"/>
</svg>
