<?xml version="1.0" encoding="utf-8"?>
<!-- Generator: Adobe Illustrator 22.0.1, SVG Export Plug-In . SVG Version: 6.00 Build 0)  -->
<svg version="1.1" id="Слой_1" xmlns="http://www.w3.org/2000/svg" xmlns:xlink="http://www.w3.org/1999/xlink" x="0px" y="0px"
	 viewBox="0 0 119 105.2" style="enable-background:new 0 0 119 105.2;" xml:space="preserve">
<style type="text/css">
	.st0{fill:#00F6D2;stroke:#000000;stroke-width:0.7;stroke-miterlimit:10;}
	.st1{fill:#010202;}
	.st2{fill:#AFC4B4;stroke:#000000;stroke-width:0.7;stroke-miterlimit:10;}
	.st3{fill:#55FFCD;stroke:#000000;stroke-width:0.7;stroke-miterlimit:10;}
</style>
<title>Group</title>
<desc>Created with Sketch.</desc>
<ellipse class="st0" cx="59.1" cy="52.4" rx="56.5" ry="48.7"/>
<ellipse class="st1" cx="59.5" cy="52.5" rx="57.5" ry="50.1"/>
<ellipse class="st1" cx="59.1" cy="52.9" rx="40.8" ry="47.2"/>
<ellipse class="st1" cx="59.3" cy="51.8" rx="18.9" ry="48.3"/>
<ellipse cx="59.1" cy="50.6" rx="1.2" ry="45"/>
<path class="st2" d="M59.9,52.1c0,1.5,0,2.8,0,4.2c0,0.4-0.2,1-0.2,1.3c0,0.5,0.2,1.1,0.2,1.6c-0.1,20.5-0.4,36.2-0.7,36.2
	S58.6,79.7,58.5,59c0-0.4,0.1-1,0.1-1.3s-0.1-1-0.1-1.3c0-1.3,0-2.8,0-4.2c0-24.1,0.4-43.5,0.7-43.5S59.9,28.3,59.9,52.1z"/>
<path class="st3" d="M105.6,61.1c-1.1-0.7-2.7-0.6-3.5,0.2C94.8,68.2,78.1,73,58.8,73c-19.5,0-36.2-4.8-43.3-11.7
	c-1-0.8-2.4-1-3.4-0.2C8.5,63.8,30,95.7,58.9,95.7S109.3,63.6,105.6,61.1z"/>
<path class="st2" d="M58.8,95.7c29.1,0,50.5-32,46.8-34.6l-4.7,6.5c-2.1,3-4.7,5.7-7.5,8l-8.2,6.7c-2.1,1.7-4.2,3.1-6.7,4.4l0,0
	c-5.9,3.3-12.7,5-19.5,5h0.1c-6.4,0-12.7-1.5-18.5-4.4l-4-1.9c-3-1.6-5.9-3.4-8.6-5.8l-3.9-3.4c-2.4-2.1-4.6-4.5-6.5-7l-5.8-8.1
	C8.3,63.6,29.8,95.7,58.8,95.7z"/>
<path class="st1" d="M43.5,72v4.5c0,1.5,1.1,2.7,2.7,2.7H72c1.5,0,2.7-1.2,2.7-2.7V72H43.5z"/>
<path class="st2" d="M23.5,79.7L27,75c0.7-1,2.1-1.5,3-0.8l8.5,6.3c0.8,0.5,1.1,1.7,0.7,2.7l-2.7,6.4L30.8,86L23.5,79.7z"/>
<path class="st1" d="M23.5,79.7l2.5-3c0.7-1,1.5-1.9,1.5-1.9l11.6,8.8c0,0-0.1,0.4-0.4,1.2l-1.9,4.7L30,85.3L23.5,79.7z"/>
<path class="st2" d="M13.9,69.4l3.8-3.6c0.7-0.7,1.9-1.1,2.8-0.4l6.7,6.7c0.6,0.6,0.8,1.7,0.4,2.4l-3.3,5.3l-4.5-3.9L13.9,69.4z"/>
<path class="st1" d="M13.9,69.4l2.7-2.4c0.7-0.7,1.6-1.6,1.6-1.6l9.1,9.4c0,0-0.1,0.2-0.5,1.1l-2.4,3.9L19,75.1L13.9,69.4z"/>
<path class="st2" d="M94,79.7L90.5,75c-0.7-1-2.1-1.5-3-0.8L79,80.5c-0.8,0.5-1.2,1.7-0.7,2.7l2.7,6.4l5.7-3.5L94,79.7z"/>
<path class="st1" d="M94,79.7l-2.5-3c-0.7-1-1.5-1.9-1.5-1.9l-11.6,8.8c0,0,0.1,0.4,0.4,1.2l1.9,4.7l6.8-4.2L94,79.7z"/>
<path class="st2" d="M103.7,69.4l-3.8-3.6c-0.7-0.7-1.9-1.1-2.8-0.4l-6.7,6.7c-0.6,0.6-0.8,1.7-0.4,2.4l3.3,5.3l4.5-3.9L103.7,69.4z
	"/>
<path class="st1" d="M103.7,69.4L101,67c-0.7-0.7-1.6-1.6-1.6-1.6l-9.1,9.4c0,0,0.1,0.2,0.5,1.1l2.4,3.9l5.4-4.7L103.7,69.4z"/>
<rect x="57.1" y="58.8" class="st1" width="4" height="12.5"/>
<polygon class="st2" points="53.8,73.2 59.1,61.2 64.7,73.2 "/>
<polygon class="st3" points="54.7,71.9 59.1,61.9 63.7,71.9 "/>
<path class="st2" d="M97.9,29.1c-4.7,5.2-16.8,15.3-22.6,20.1c-1.1,0.8-0.4,2.5,1,2.4l24.2-1.1c1.6-0.1,2.8-1.5,2.8-3l-0.8-15.9
	C102.1,29.3,99.3,27.6,97.9,29.1z"/>
<path class="st3" d="M95.2,31.9c-3.9,4.2-15,13.7-19.9,17.6c-0.8,0.7-0.4,2.1,0.8,1.9l21.1-1.1c1.3-0.1,2.4-1.2,2.3-2.5l-0.7-14
	C98.8,32,96.5,30.6,95.2,31.9z"/>
<path class="st2" d="M20,29.3c4.7,5.3,17.1,15.6,23,20.3c1.1,0.8,0.4,2.5-1,2.5L17.5,51c-1.7-0.1-2.9-1.5-2.8-3.1l0.8-16.2
	C15.7,29.4,18.5,27.6,20,29.3z"/>
<path class="st3" d="M22.7,32.2C26.6,36.4,37.8,46,42.8,50c0.8,0.7,0.4,2.1-0.8,1.9l-21.4-1.1c-1.3-0.1-2.4-1.2-2.3-2.5L19,34
	C19.1,32.2,21.5,30.7,22.7,32.2z"/>
<path class="st1" d="M34.3,8.7C40.7,9.5,49.4,10,59.1,10s18.3-0.5,24.8-1.3c-7.5-3.1-15.9-5-24.8-5S41.8,5.5,34.3,8.7z"/>
<path class="st2" d="M42.3,42.5c-0.4,0.4-5.2-3.1-11-8c-5.8-4.8-10.2-9-9.8-9.3c0.4-0.4,5.2,3.1,11,8C38.3,37.9,42.7,42.1,42.3,42.5
	z"/>
<path class="st2" d="M74.8,42.2c0.4,0.4,5.2-3.1,10.9-7.9c5.7-4.7,10-8.8,9.7-9.2c-0.4-0.4-5.2,3.1-10.9,7.9
	C78.7,37.7,74.5,41.8,74.8,42.2z"/>
</svg>
