<?xml version="1.0" encoding="utf-8"?>
<!-- Generator: Adobe Illustrator 22.0.1, SVG Export Plug-In . SVG Version: 6.00 Build 0)  -->
<svg version="1.1" id="Слой_1" xmlns="http://www.w3.org/2000/svg" xmlns:xlink="http://www.w3.org/1999/xlink" x="0px" y="0px"
	 viewBox="0 0 196 137" style="enable-background:new 0 0 196 137;" xml:space="preserve">
<style type="text/css">
	.st0{fill:#00F6D2;}
	.st1{fill:#171717;}
</style>
<title>Group</title>
<desc>Created with Sketch.</desc>
<ellipse class="st0" cx="99.5" cy="69.3" rx="73.5" ry="64"/>
<g>
	<ellipse class="st0" cx="99.5" cy="69.7" rx="66" ry="56.8"/>
	<path d="M99.5,128.1c-37.3,0-67.6-26.2-67.6-58.4c0-32.2,30.3-58.4,67.6-58.4c37.3,0,67.6,26.2,67.6,58.4
		C167.1,101.9,136.8,128.1,99.5,128.1z M99.5,14.5c-35.5,0-64.4,24.8-64.4,55.2s28.9,55.2,64.4,55.2c35.5,0,64.4-24.8,64.4-55.2
		S135,14.5,99.5,14.5z"/>
</g>
<ellipse class="st1" cx="100.1" cy="69.7" rx="67.1" ry="58"/>
<ellipse class="st1" cx="99.5" cy="70.3" rx="47.2" ry="55.2"/>
<ellipse class="st1" cx="100.1" cy="68.5" rx="22.2" ry="56.3"/>
<path class="st0" d="M154.2,88.3c-1.2-0.6-2.9-0.6-3.9,0c-8,5.7-27.9,9.1-50.6,9.1s-42.1-3.9-50.6-9.1c-1.2-0.6-2.9-0.6-3.9,0
	c-4.2,2.3,20.3,27.3,54.4,27.3C133.1,115.1,158.1,90.1,154.2,88.3z"/>
<path class="st1" d="M81.4,92.4v5.1c0,1.7,1.7,2.9,2.9,2.9h29.5c1.7,0,2.9-1.7,2.9-2.9v-5.1H81.4z"/>
<path class="st0" d="M52.9,41.8c7.4,8,28.5,26.2,37.5,33c1.7,1.2,0.6,3.9-1.2,3.9l-40.4-2.3c-2.9,0-4.5-2.3-4.5-4.5l1.7-26.7
	C46.1,42.4,50.6,38.9,52.9,41.8z"/>
<path class="st1" d="M70.5,19.1c8,1.2,17.6,1.7,29.1,1.7s21.1-0.6,29.1-1.7c-8-3.4-18.8-5.7-29.1-5.7S79.6,15.1,70.5,19.1z"/>
<path class="st0" d="M146.2,41.8c-7.4,8-28.5,25.6-37.5,33c-1.7,1.2-0.6,3.9,1.2,3.9l39.8-2.3c2.9,0,4.5-2.3,4.5-4.5l-0.6-26.7
	C153.6,42.4,149,38.9,146.2,41.8z"/>
</svg>
