<svg id="Слой_1" data-name="Слой 1" xmlns="http://www.w3.org/2000/svg" viewBox="0 0 150.8 131.4"><defs><style>.cls-1,.cls-2{fill:#00f6d2;}.cls-2{stroke:#000;stroke-miterlimit:10;stroke-width:3.2711px;}.cls-3{fill:#171717;}</style></defs><title>logo</title><ellipse class="cls-1" cx="75.4" cy="65.7" rx="75.4" ry="65.7"/><ellipse class="cls-2" cx="75" cy="65.99999" rx="69.00001" ry="59.5"/><ellipse class="cls-3" cx="75.6" cy="65.99999" rx="70.2" ry="60.7"/><ellipse class="cls-3" cx="75" cy="66.6" rx="49.4" ry="57.7"/><ellipse class="cls-3" cx="75.6" cy="64.8" rx="23.2" ry="58.9"/><path class="cls-1" d="M-128.3,4.1a5.125,5.125,0,0,0-4.2,0c-8.3,5.9-29.1,9.5-52.9,9.5s-44-4.2-52.9-9.5a5.125,5.125,0,0,0-4.2,0c-4.2,2.4,21.4,28.5,57.1,28.5C-150.3,32.1-124.1,5.9-128.3,4.1Z" transform="translate(260.4 82.29997)"/><path class="cls-3" d="M-204.4,7.5v5.4a3.2142,3.2142,0,0,0,3,3h30.9a3.21421,3.21421,0,0,0,3-3V7.5Z" transform="translate(260.4 82.29997)"/><path class="cls-1" d="M-234.1-45.4c7.7,8.3,29.7,27.4,39.3,34.5,1.8,1.2.6,4.2-1.2,4.2l-42.2-2.4a4.73244,4.73244,0,0,1-4.8-4.8l1.8-28C-241.3-44.8-236.5-48.4-234.1-45.4Z" transform="translate(260.4 82.29997)"/><path class="cls-3" d="M-215.7-69.2a216.217,216.217,0,0,0,30.3,1.8,216.21687,216.21687,0,0,0,30.3-1.8c-8.3-3.6-19.6-5.9-30.3-5.9S-206.2-73.4-215.7-69.2Z" transform="translate(260.4 82.29997)"/><path class="cls-1" d="M-136.6-45.4c-7.7,8.3-29.7,26.8-39.3,34.5-1.8,1.2-.6,4.2,1.2,4.2l41.6-2.4a4.73244,4.73244,0,0,0,4.8-4.8l-.6-28C-128.9-44.8-133.6-48.4-136.6-45.4Z" transform="translate(260.4 82.29997)"/></svg>