<?xml version="1.0" encoding="utf-8"?>
<!-- Generator: Adobe Illustrator 22.0.1, SVG Export Plug-In . SVG Version: 6.00 Build 0)  -->
<svg version="1.1" id="Слой_1" xmlns="http://www.w3.org/2000/svg" xmlns:xlink="http://www.w3.org/1999/xlink" x="0px" y="0px"
	 viewBox="0 0 196 137" style="enable-background:new 0 0 196 137;" xml:space="preserve">
<style type="text/css">
	.st0{fill:#00F6D2;stroke:#000000;stroke-width:3.2711;stroke-miterlimit:10;}
	.st1{fill:#171717;}
	.st2{fill:#00F6D2;}
	.st3{fill:#AFC4B4;stroke:#000000;stroke-width:3.2861;stroke-miterlimit:10;}
	.st4{fill:#00F6D2;stroke:#000000;stroke-width:3.2861;stroke-miterlimit:10;}
	.st5{fill:#00F6D2;stroke:#000000;stroke-width:3.0695;stroke-miterlimit:10;}
</style>
<title>Group</title>
<desc>Created with Sketch.</desc>
<ellipse class="st0" cx="97.5" cy="69.4" rx="74.2" ry="63.8"/>
<ellipse class="st1" cx="98" cy="69.5" rx="75.4" ry="65.7"/>
<ellipse class="st1" cx="97.5" cy="70" rx="53.5" ry="61.9"/>
<ellipse class="st1" cx="97.7" cy="68.6" rx="24.9" ry="63.3"/>
<path class="st2" d="M158.5,80.7c-1.3-1-3.4-0.8-4.5,0.3c-9.6,9.1-31.4,15.4-56.9,15.4s-47.4-6.3-57-15.4c-1.2-1.1-3.2-1.2-4.5-0.3
	C30.8,84.1,59,126.1,97,126.1C135.1,126.1,163.3,84.1,158.5,80.7z"/>
<path class="st3" d="M97.1,126.1c38.1,0,66.2-42,61.4-45.4l-6.1,8.6c-2.8,3.9-6.1,7.4-9.8,10.5l-10.8,8.8c-2.7,2.2-5.6,4.2-8.7,5.8
	l0,0c-7.8,4.2-16.6,6.4-25.5,6.4h-0.1c-8.4,0-16.7-2-24.2-5.7l-5.3-2.6c-4-2-7.8-4.5-11.2-7.5l-5-4.3c-3.2-2.7-6-5.8-8.5-9.2
	l-7.7-10.6C30.8,84.1,59,126.1,97.1,126.1z"/>
<path class="st1" d="M77.1,95.1v6c0,1.9,1.6,3.5,3.5,3.5h33.9c1.9,0,3.5-1.6,3.5-3.5v-6H77.1z"/>
<path class="st3" d="M50.9,105.3l4.7-6.1c0.9-1.2,2.7-1.9,4-1.1l11.1,8.2c1.1,0.8,1.5,2.2,1,3.4l-3.6,8.4l-7.4-4.7L50.9,105.3z"/>
<path class="st1" d="M50.9,105.3l3.3-4c0.9-1.2,1.9-2.6,1.9-2.6l15.2,11.7c0,0-0.1,0.4-0.6,1.6l-2.6,6.1l-8.9-5.7L50.9,105.3z"/>
<path class="st3" d="M38.2,91.7l5-4.8c1-0.9,2.7-1.4,3.7-0.4l8.8,8.8c0.9,0.8,1.1,2.1,0.4,3.2l-4.3,7l-5.9-5.1L38.2,91.7z"/>
<path class="st1" d="M38.2,91.7l3.5-3.1c1-0.9,2-2,2-2L55.6,99c0,0-0.1,0.3-0.7,1.4l-3.1,5.1l-7.1-6.2L38.2,91.7z"/>
<path class="st3" d="M143.2,105.3l-4.7-6.1c-0.9-1.2-2.7-1.9-4-1.1l-11.1,8.2c-1.1,0.8-1.5,2.2-1,3.4l3.6,8.4l7.4-4.7L143.2,105.3z"
	/>
<path class="st1" d="M143.2,105.3l-3.3-4c-0.9-1.2-1.9-2.6-1.9-2.6l-15.2,11.7c0,0,0.1,0.4,0.6,1.6l2.6,6.1l8.9-5.7L143.2,105.3z"/>
<path class="st3" d="M155.9,91.7l-5-4.8c-1-0.9-2.7-1.4-3.7-0.4l-8.8,8.8c-0.9,0.8-1.1,2.1-0.4,3.2l4.3,7l5.9-5.1L155.9,91.7z"/>
<path class="st1" d="M155.9,91.7l-3.5-3.1c-1-0.9-2-2-2-2L138.5,99c0,0,0.1,0.3,0.7,1.4l3.1,5.1l7.1-6.2L155.9,91.7z"/>
<rect x="94.9" y="77.7" class="st1" width="5.2" height="16.4"/>
<polygon class="st3" points="90.4,96.7 97.6,80.9 104.8,96.7 "/>
<polygon class="st4" points="91.6,94.9 97.6,81.8 103.6,94.9 "/>
<path class="st3" d="M148.3,38.9c-6.1,6.9-22,20.1-29.7,26.4c-1.4,1.1-0.5,3.3,1.2,3.2l31.8-1.6c2.1-0.1,3.7-1.9,3.6-4L154.1,42
	C154,39,150.2,36.7,148.3,38.9z"/>
<path class="st5" d="M144.9,42.5c-5,5.6-19.7,17.9-26,23c-1.1,0.9-0.4,2.7,1,2.6l27.7-1.4c1.8-0.1,3.1-1.5,3-3.3L149.8,45
	C149.6,42.7,146.5,40.7,144.9,42.5z"/>
<path class="st3" d="M46.3,39.1c6.2,7,22.3,20.4,30.1,26.7c1.4,1.1,0.5,3.3-1.3,3.2l-32.3-1.6c-2.1-0.1-3.8-1.9-3.7-4.1l1.2-21.2
	C40.5,39.2,44.3,36.9,46.3,39.1z"/>
<path class="st5" d="M49.7,42.7C54.8,48.4,69.6,60.9,76,66c1.1,0.9,0.4,2.7-1.1,2.7l-28.1-1.4c-1.8-0.1-3.1-1.6-3-3.3l0.9-18.6
	C44.9,42.9,48.1,40.9,49.7,42.7z"/>
<path class="st1" d="M65,12c8.5,1.1,19.9,1.9,32.5,1.9s24-0.7,32.5-1.9c-9.8-4.2-20.8-6.5-32.5-6.5S74.8,7.9,65,12z"/>
</svg>
