<?xml version="1.0" encoding="utf-8"?>
<!-- Generator: Adobe Illustrator 22.0.1, SVG Export Plug-In . SVG Version: 6.00 Build 0)  -->
<svg version="1.1" id="Слой_1" xmlns="http://www.w3.org/2000/svg" xmlns:xlink="http://www.w3.org/1999/xlink" x="0px" y="0px"
	 viewBox="0 0 141.7 141.7" style="enable-background:new 0 0 141.7 141.7;" xml:space="preserve">
<style type="text/css">
	.st0{fill:#00F6D2;stroke:#000000;stroke-width:0.1;stroke-miterlimit:10;}
	.st1{fill:#171717;}
	.st2{fill:#AFC4B4;stroke:#000000;stroke-width:0.1;stroke-miterlimit:10;}
	.st3{fill:#00F6D2;}
</style>
<ellipse class="st0" cx="69.8" cy="70" rx="66.2" ry="57.1"/>
<ellipse class="st1" cx="70.3" cy="70" rx="67.1" ry="58.5"/>
<ellipse class="st1" cx="69.8" cy="70.5" rx="47.5" ry="55.1"/>
<ellipse class="st1" cx="69.8" cy="69.1" rx="22.1" ry="56.6"/>
<ellipse cx="69.8" cy="67.6" rx="1.4" ry="52.7"/>
<path class="st2" d="M70.8,69.6c0,1.9,0,3.4,0,4.8c0,0.5,0,1,0,1.4c0,0.5,0,1.4,0,1.9c0,24-0.5,42.2-1,42.2c-0.5,0-1-18.2-1-42.7
	c0-0.5,0-1,0-1.4c0-0.5,0-1,0-1.4c0-1.4,0-3.4,0-4.8c0-27.8,0.5-50.8,1-50.8C70.3,18.7,70.8,41.7,70.8,69.6z"/>
<path class="st3" d="M124,80.1c-1-1-2.9-1-3.8,0.5c-8.6,8.2-27.8,13.9-50.8,13.9s-42.2-6.2-50.8-14.4c-1-1-2.9-1-3.8-0.5
	c-4.3,2.9,20.6,40.3,54.7,40.3S128.3,83,124,80.1z"/>
<path class="st2" d="M69.3,120.4c34,0,59-37.4,54.7-40.3l-5.3,7.7c-2.4,3.4-5.3,6.7-8.6,9.1l-9.6,7.7c-2.4,1.9-4.8,3.8-7.7,5.3l0,0
	c-7.2,3.8-14.9,5.8-22.5,5.8l0,0c-7.7,0-14.9-1.9-21.6-5.3l-4.8-2.4c-4.3-1.4-7.7-3.8-10.5-6.7L29,97.4c-2.9-2.4-5.3-5.3-7.7-8.2
	l-6.7-9.6C10.3,83,35.3,120.4,69.3,120.4z"/>
<path class="st1" d="M51.6,92.6v5.3c0,1.9,1.4,2.9,2.9,2.9h30.2c1.9,0,2.9-1.4,2.9-2.9v-5.3H51.6z"/>
<path class="st2" d="M28.1,101.7l4.3-5.3c1-1,2.4-1.9,3.4-1l10.1,7.2c1,0.5,1.4,1.9,1,2.9l-3.4,7.7l-6.7-4.3L28.1,101.7z"/>
<path class="st1" d="M28.1,101.7l2.9-3.8c1-1,1.4-2.4,1.4-2.4L45.8,106c0,0,0,0.5-0.5,1.4l-2.4,5.3l-8.2-5.3L28.1,101.7z"/>
<path class="st2" d="M17,89.7l4.3-4.3c1-1,2.4-1.4,3.4-0.5l7.7,7.7c1,1,1,1.9,0.5,2.9l-3.8,6.2l-5.3-4.8L17,89.7z"/>
<path class="st1" d="M17,89.7l2.9-2.9c1-1,1.9-1.9,1.9-1.9l10.5,11c0,0,0,0.5-0.5,1.4l-2.9,4.3l-6.2-5.8L17,89.7z"/>
<path class="st2" d="M110.6,101.7l-4.3-5.3c-1-1-2.4-1.9-3.4-1l-10.1,7.2c-1,0.5-1.4,1.9-1,2.9l3.4,7.7l6.7-4.3L110.6,101.7z"/>
<path class="st1" d="M110.6,101.7l-2.9-3.8c-1-1-1.4-2.4-1.4-2.4L92.8,106c0,0,0,0.5,0.5,1.4l2.4,5.3l8.2-5.3L110.6,101.7z"/>
<path class="st2" d="M121.6,89.7l-4.3-4.3c-1-1-2.4-1.4-3.4-0.5l-7.7,7.7c-1,1-1,1.9-0.5,2.9l3.8,6.2l5.3-4.8L121.6,89.7z"/>
<path class="st1" d="M121.6,89.7l-2.9-2.9c-1-1-1.9-1.9-1.9-1.9l-10.5,11c0,0,0,0.5,0.5,1.4l2.9,4.3l6.2-5.8L121.6,89.7z"/>
<rect x="67.4" y="77.2" class="st1" width="4.8" height="14.4"/>
<polygon class="st2" points="63.6,94 69.8,80.1 76,94 "/>
<polygon class="st0" points="64.5,92.6 69.8,81.1 75.1,92.6 "/>
<path class="st2" d="M114.9,42.7c-5.3,6.2-19.7,17.7-26.4,23.5c-1.4,1-0.5,2.9,1,2.9l28.3-1.4c1.9,0,3.4-1.9,3.4-3.8l-1-18.7
	C120.1,42.7,116.8,40.8,114.9,42.7z"/>
<path class="st0" d="M112,46.1c-4.3,4.8-17.3,15.8-23,20.6c-1,1-0.5,2.4,1,2.4l24.9-1.4c1.4,0,2.9-1.4,2.9-2.9l-1-16.3
	C116.3,46.1,113.4,44.1,112,46.1z"/>
<path class="st2" d="M24.2,42.7c5.8,6.2,19.7,18.2,26.9,24c1.4,1,0.5,2.9-1,2.9l-28.8-1.4c-1.9,0-3.4-1.9-3.4-3.8l1-18.7
	C19,43.2,22.3,40.8,24.2,42.7z"/>
<path class="st0" d="M27.1,46.1c4.3,5.3,17.7,16.3,23.5,20.6c1,1,0.5,2.4-1,2.4l-24.9-1.4c-1.4,0-2.9-1.4-2.9-2.9l1-16.8
	C22.8,46.1,25.7,44.6,27.1,46.1z"/>
<path class="st1" d="M40.5,18.7c7.7,1,17.7,1.4,28.8,1.4s21.6-0.5,28.8-1.4C89.9,14.9,79.9,13,69.8,13C59.2,13,49.7,14.9,40.5,18.7z
	"/>
<path class="st2" d="M50.1,58.1c-0.5,0.5-6.2-3.8-12.9-9.1c-6.7-5.8-12-10.5-11.5-11c0.5-0.5,6.2,3.8,12.9,9.6
	C45.3,52.8,50.6,57.6,50.1,58.1z"/>
<path class="st2" d="M88,58.1c0.5,0.5,6.2-3.8,12.9-9.1c6.7-5.3,11.5-10.5,11.5-10.5c-0.5-0.5-6.2,3.8-12.9,9.1
	C92.8,52.8,87.5,57.6,88,58.1z"/>
</svg>
