<?xml version="1.0" encoding="utf-8"?>
<!-- Generator: Adobe Illustrator 22.0.1, SVG Export Plug-In . SVG Version: 6.00 Build 0)  -->
<svg version="1.1" id="Слой_1" xmlns="http://www.w3.org/2000/svg" xmlns:xlink="http://www.w3.org/1999/xlink" x="0px" y="0px"
	 viewBox="0 0 784 548" style="enable-background:new 0 0 784 548;" xml:space="preserve">
<style type="text/css">
	.st0{fill:#00F6D2;stroke:#000000;stroke-width:3.2711;stroke-miterlimit:10;}
	.st1{fill:#010202;}
	.st2{fill:#AFC4B4;stroke:#000000;stroke-width:3.2861;stroke-miterlimit:10;}
	.st3{fill:#55FFCD;stroke:#000000;stroke-width:3;stroke-miterlimit:10;}
	.st4{fill:#AFC4B4;stroke:#000000;stroke-width:4.0586;stroke-miterlimit:10;}
</style>
<title>Group</title>
<desc>Created with Sketch.</desc>
<ellipse class="st0" cx="389.3" cy="275.3" rx="297.6" ry="256"/>
<ellipse class="st1" cx="391.4" cy="275.8" rx="302.4" ry="263.6"/>
<ellipse class="st1" cx="389.3" cy="277.7" rx="214.6" ry="248.3"/>
<ellipse class="st1" cx="390.2" cy="272.1" rx="99.7" ry="253.9"/>
<ellipse cx="389.3" cy="266.1" rx="6.5" ry="236.7"/>
<path class="st2" d="M393.2,274.3c0,7.6,0,15.1,0,22.5c0,2.4-1,4.9-1,7.2c0,2.9,1,5.6,1,8.5c-0.3,108-1.9,190.3-3.7,190.3
	c-1.9,0-3.5-82.9-3.8-191.5c0-2.4,0.8-4.8,0.8-7.3c0-2.3-0.8-4.8-0.8-7.2c0-7.4,0-15,0-22.6c0-126.2,1.7-228.5,3.8-228.5
	S393.2,148.1,393.2,274.3z"/>
<path class="st3" d="M634,320.9c-5.4-3.8-13.5-3.3-18.1,1.1c-38.3,36.4-126.1,61.8-228.2,61.8s-190-25.4-228.3-61.8
	c-4.7-4.4-12.8-4.9-18.1-1.1c-19.2,13.6,93.8,182,246.4,182S653.2,334.5,634,320.9z"/>
<path class="st2" d="M387.6,502.9c152.6,0,265.5-168.4,246.4-182l-24.6,34.3c-11.2,15.7-24.5,29.7-39.4,41.9l-43.3,35.3
	c-10.9,8.9-22.6,16.7-35,23.3l0,0c-31.5,16.8-66.6,25.6-102.3,25.6h-0.3c-33.7,0-67-7.9-97.2-22.9L271,447.8
	c-16.2-8.1-31.3-18.1-44.9-30L206,400.4c-12.7-11-24.1-23.4-34-37.1l-30.7-42.4C122.1,334.5,235,502.9,387.6,502.9z"/>
<path class="st1" d="M307.5,378.3v23.9c0,7.7,6.3,14,14,14h135.7c7.7,0,14-6.3,14-14v-23.9H307.5z"/>
<path class="st2" d="M202.5,419.4l18.8-24.5c3.6-4.7,10.9-7.8,15.9-4.4l44.7,32.9c4.4,3,6.1,8.8,4,13.7l-14.3,33.7L241.9,452
	L202.5,419.4z"/>
<path class="st1" d="M202.5,419.4l13.4-16.2c3.6-4.7,7.5-10.3,7.5-10.3l61.1,46.8c0,0-0.3,1.5-2.4,6.5l-10.5,24.6l-35.8-22.7
	L202.5,419.4z"/>
<path class="st2" d="M151.5,364.7l20-19.2c3.9-3.7,10.7-5.4,14.7-1.8l35.1,35.2c3.5,3.3,4.2,8.6,1.7,12.7l-17.2,27.9L182,398.9
	L151.5,364.7z"/>
<path class="st1" d="M151.5,364.7l14-12.6c3.9-3.7,8-8.1,8-8.1l47.8,49.6c0,0-0.5,1.3-3,5.4l-12.6,20.4l-28.6-24.9L151.5,364.7z"/>
<path class="st2" d="M572.6,419.4l-18.8-24.5c-3.6-4.7-10.9-7.8-15.9-4.4l-44.7,32.9c-4.4,3-6.1,8.8-4,13.7l14.3,33.7l29.7-18.8
	L572.6,419.4z"/>
<path class="st1" d="M572.6,419.4l-13.4-16.2c-3.6-4.7-7.5-10.3-7.5-10.3l-61.1,46.8c0,0,0.3,1.5,2.4,6.5l10.5,24.6l35.8-22.7
	L572.6,419.4z"/>
<path class="st2" d="M623.7,364.7l-20-19.2c-3.9-3.7-10.7-5.4-14.7-1.8l-35.1,35.2c-3.5,3.3-4.2,8.6-1.7,12.7l17.2,27.9l23.8-20.6
	L623.7,364.7z"/>
<path class="st1" d="M623.7,364.7l-14-12.6c-3.9-3.7-8-8.1-8-8.1l-47.8,49.6c0,0,0.5,1.3,3,5.4l12.6,20.4l28.6-24.9L623.7,364.7z"/>
<rect x="378.8" y="308.9" class="st1" width="21" height="65.7"/>
<polygon class="st2" points="361,384.9 389.8,321.4 418.7,384.9 "/>
<polygon class="st3" points="365.9,377.5 389.8,325.1 413.8,377.5 "/>
<path class="st2" d="M593,153.1c-24.5,27.7-88.3,80.5-119.2,105.7c-5.4,4.4-2,13.2,4.9,12.8l127.6-6.2c8.5-0.4,15-7.7,14.6-16.2
	l-4.6-83.8C615.8,153.7,600.7,144.4,593,153.1z"/>
<path class="st3" d="M579.5,167.6c-20.1,22.5-78.8,71.8-104.2,92.1c-4.5,3.6-1.6,10.8,4.2,10.5l111.2-5.7c7-0.3,12.4-6.2,11.9-13.2
	l-3.7-73.7C598.4,168.2,585.8,160.5,579.5,167.6z"/>
<path class="st2" d="M184,153.9c24.9,28.1,89.5,81.7,120.8,107.1c5.5,4.5,2.1,13.4-5,13l-129.4-6.3c-8.6-0.4-15.2-7.8-14.8-16.4
	l4.6-85C160.8,154.5,176.1,145,184,153.9z"/>
<path class="st3" d="M197.6,168.5c20.4,22.8,79.9,72.8,105.6,93.4c4.5,3.6,1.6,10.9-4.2,10.7l-112.8-5.8
	c-7.1-0.3-12.5-6.3-12.1-13.3l3.7-74.7C178.5,169.2,191.2,161.3,197.6,168.5z"/>
<path class="st1" d="M259,45.3c34.1,4.6,79.9,7.4,130.3,7.4s96.2-2.8,130.3-7.4c-39.4-16.7-83.6-26-130.3-26S298.4,28.7,259,45.3z"
	/>
<path class="st4" d="M301.4,223.2c-1.7,2.1-27.7-16.5-58-41.6s-53.5-47.1-51.7-49.2c1.7-2.1,27.7,16.5,58,41.6
	C280,199,303.1,221.1,301.4,223.2z"/>
<path class="st4" d="M471.7,221.9c1.7,2.1,27.3-16.3,57.2-41s52.7-46.5,51-48.6s-27.3,16.3-57.2,41
	C492.8,198.1,470,219.9,471.7,221.9z"/>
</svg>
